<?xml version="1.0" encoding="UTF-8"?>
<!--Generator: Apple Native CoreSVG 232.5-->
<!DOCTYPE svg
PUBLIC "-//W3C//DTD SVG 1.1//EN"
       "http://www.w3.org/Graphics/SVG/1.1/DTD/svg11.dtd">
<svg version="1.1" xmlns="http://www.w3.org/2000/svg" xmlns:xlink="http://www.w3.org/1999/xlink" width="39.3164" height="46.6602">
 <g>
  <rect height="46.6602" opacity="0" width="39.3164" x="0" y="0"/>
  <path d="M38.9453 18.3398C38.9453 23.0469 37.168 27.3438 34.1016 30.0195L34.1016 39.5508C34.1016 43.9648 29.668 46.5234 22.4609 46.5234C15.625 46.5234 11.3086 44.1602 11.0156 40.0586L11.0352 39.9219L9.00391 40.1172C5.82031 40.4883 3.32031 38.7109 3.32031 35.1953L3.32031 31.4453C1.23047 30.8984 0 29.2383 0 27.2266C0 26.1719 0.332031 25.0195 0.996094 23.8477L3.37891 19.5508C3.32031 19.043 3.30078 18.5352 3.30078 17.9297C3.30078 7.16797 10.4297 0 21.0742 0C31.7578 0 38.9453 7.34375 38.9453 18.3398ZM23.9844 21.1328C23.9844 22.2656 24.7656 23.0664 26.0938 23.0664L26.4258 23.0664C26.7578 24.9219 27.9492 26.1914 29.4336 26.1914C31.582 26.1914 33.125 23.75 33.125 20.3516C33.125 20.0781 33.125 19.7656 33.1055 19.4727C32.3047 19.8242 31.3672 19.9805 30.293 19.9219C29.7656 19.8633 29.3945 19.4531 29.3945 18.9648C29.3945 18.4375 29.8438 17.9883 30.332 18.0273C32.5391 18.1836 33.9648 16.9727 33.9648 15C33.9648 13.2031 33.0664 11.7188 31.6211 10.8789C31.0742 16.4453 23.9844 17.207 23.9844 21.1328ZM18.1641 8.125C18.1641 8.71094 17.7734 9.08203 17.2266 9.08203C16.6406 9.08203 16.2305 8.63281 16.2695 8.06641C16.2891 7.24609 16.5234 6.67969 16.7578 6.15234C16.4062 6.11328 16.0938 6.07422 15.7422 6.07422C13.3398 6.07422 11.4844 7.55859 11.4844 9.51172C11.4844 10.7422 12.3633 11.6797 13.4961 11.6797C14.043 11.6797 14.4922 12.1094 14.4922 12.6367C14.4922 13.1445 14.0234 13.5938 13.4961 13.5938C11.8555 13.5938 10.5859 12.8125 10 11.582C9.33594 12.5586 8.96484 13.7305 8.96484 14.9023C8.96484 18.2227 11.0938 20.7617 14.375 20.7617C16.7578 20.7617 18.4375 19.1992 18.4375 17.0117C18.4375 16.25 18.1836 15.6055 17.7734 15.1953C17.4414 14.8828 17.3242 14.5508 17.3242 14.2773C17.3242 13.7891 17.7344 13.418 18.2422 13.418C18.4766 13.418 18.75 13.4766 18.9648 13.6914C19.082 13.7891 19.1992 13.9844 19.2383 14.1016C20.8203 13.8867 21.6016 12.9688 21.6016 11.4648C21.6016 10.9375 22.0312 10.5078 22.5391 10.5078C23.0469 10.5078 23.4766 10.957 23.4766 11.4648C23.4961 13.7695 22.3242 15.2344 20.1367 15.7227C20.2539 16.1523 20.293 16.6016 20.293 17.0508C20.293 19.0234 19.3359 20.6055 17.6953 21.4844C18.6133 21.9727 19.6875 22.2266 20.8594 22.2266C21.3672 22.2266 21.9336 22.168 22.4805 22.0703C22.3828 21.7773 22.3242 21.4844 22.3242 21.1719C22.3242 16.0352 29.9219 15.1562 29.9219 10.5273C29.9219 8.26172 28.1445 6.46484 25.918 6.46484C25.1172 6.46484 24.8828 6.48438 24.668 6.54297C23.8477 5.625 22.6367 5.07812 21.5039 5.07812C19.5703 5.07812 18.1836 6.28906 18.1641 8.125Z" fill="#2abf5b"/>
 </g>
</svg>
