<?xml version="1.0" encoding="UTF-8"?>
<!--Generator: Apple Native CoreSVG 232.5-->
<!DOCTYPE svg
PUBLIC "-//W3C//DTD SVG 1.1//EN"
       "http://www.w3.org/Graphics/SVG/1.1/DTD/svg11.dtd">
<svg version="1.1" xmlns="http://www.w3.org/2000/svg" xmlns:xlink="http://www.w3.org/1999/xlink" width="40.2148" height="39.8633">
 <g>
  <rect height="39.8633" opacity="0" width="40.2148" x="0" y="0"/>
  <path d="M19.9219 39.8438C30.8203 39.8438 39.8438 30.8008 39.8438 19.9219C39.8438 9.02344 30.8008 0 19.9023 0C9.02344 0 0 9.02344 0 19.9219C0 30.8008 9.04297 39.8438 19.9219 39.8438Z" fill="#2abf5b"/>
  <path d="M17.7539 25.9961C13.1445 25.9961 9.375 22.207 9.375 17.6172C9.375 13.0078 13.1445 9.21875 17.7539 9.21875C22.3633 9.21875 26.1328 12.9883 26.1328 17.6172C26.1328 19.3359 25.5859 20.957 24.6875 22.2656L29.8633 27.4805C30.1953 27.832 30.4102 28.2617 30.4102 28.7109C30.4102 29.7266 29.7461 30.4492 28.7695 30.4492C28.1836 30.4492 27.7539 30.2539 27.3438 29.8242L22.1875 24.6875C20.8984 25.4883 19.375 25.9961 17.7539 25.9961ZM17.7539 23.2422C20.8203 23.2422 23.3594 20.6836 23.3594 17.6172C23.3594 14.5117 20.8203 11.9727 17.7539 11.9727C14.668 11.9727 12.1289 14.5312 12.1289 17.6172C12.1289 20.6836 14.668 23.2422 17.7539 23.2422Z" fill="#ffffff"/>
 </g>
</svg>
