<?xml version="1.0" encoding="UTF-8"?>
<!--Generator: Apple Native CoreSVG 232.5-->
<!DOCTYPE svg
PUBLIC "-//W3C//DTD SVG 1.1//EN"
       "http://www.w3.org/Graphics/SVG/1.1/DTD/svg11.dtd">
<svg version="1.1" xmlns="http://www.w3.org/2000/svg" xmlns:xlink="http://www.w3.org/1999/xlink" width="38.0127" height="23.8037">
 <g>
  <rect height="23.8037" opacity="0" width="38.0127" x="0" y="0"/>
  <path d="M6.75293 23.7891L22.4854 23.7891C25.4297 23.7891 27.1875 22.0898 27.1875 19.1455L27.1875 4.62891C27.1875 1.69922 25.5762 0 22.6318 0L6.75293 0C3.94043 0 2.05078 1.69922 2.05078 4.62891L2.05078 19.1455C2.05078 22.0898 3.80859 23.7891 6.75293 23.7891ZM29.1797 16.2158L34.5117 20.8301C35.0098 21.2695 35.5957 21.5479 36.123 21.5479C37.2656 21.5479 38.0127 20.7129 38.0127 19.5117L38.0127 4.27734C38.0127 3.07617 37.2656 2.24121 36.123 2.24121C35.5957 2.24121 35.0098 2.51953 34.5117 2.95898L29.1797 7.55859Z" fill="#2dbf54"/>
 </g>
</svg>
