<?xml version="1.0" encoding="UTF-8"?>
<!--Generator: Apple Native CoreSVG 232.5-->
<!DOCTYPE svg
PUBLIC "-//W3C//DTD SVG 1.1//EN"
       "http://www.w3.org/Graphics/SVG/1.1/DTD/svg11.dtd">
<svg version="1.1" xmlns="http://www.w3.org/2000/svg" xmlns:xlink="http://www.w3.org/1999/xlink" width="36.3867" height="36.0352">
 <g>
  <rect height="36.0352" opacity="0" width="36.3867" x="0" y="0"/>
  <path d="M33.7305 2.30469C31.7383 0.3125 28.9258 0 25.5859 0L10.3711 0C7.08984 0 4.27734 0.3125 2.28516 2.30469C0.292969 4.29688 0 7.08984 0 10.3711L0 25.5859C0 28.9258 0.292969 31.7188 2.28516 33.7109C4.27734 35.7031 7.08984 36.0156 10.4102 36.0156L25.5859 36.0156C28.9258 36.0156 31.7383 35.7031 33.7305 33.7109C35.7227 31.7188 36.0156 28.9258 36.0156 25.5859L36.0156 10.4102C36.0156 7.07031 35.7227 4.29688 33.7305 2.30469ZM32.8711 9.88281L32.8711 26.1328C32.8711 28.1445 32.6172 30.2344 31.4258 31.4062C30.2539 32.5977 28.1445 32.8711 26.1328 32.8711L9.88281 32.8711C7.87109 32.8711 5.76172 32.5977 4.57031 31.4062C3.39844 30.2344 3.14453 28.1445 3.14453 26.1328L3.14453 9.94141C3.14453 7.87109 3.39844 5.78125 4.57031 4.58984C5.76172 3.41797 7.89062 3.14453 9.94141 3.14453L26.1328 3.14453C28.1445 3.14453 30.2539 3.41797 31.4258 4.60938C32.6172 5.78125 32.8711 7.87109 32.8711 9.88281Z" fill="#000000"/>
 </g>
</svg>
