<?xml version="1.0" encoding="UTF-8"?>
<!--Generator: Apple Native CoreSVG 232.5-->
<!DOCTYPE svg
PUBLIC "-//W3C//DTD SVG 1.1//EN"
       "http://www.w3.org/Graphics/SVG/1.1/DTD/svg11.dtd">
<svg version="1.1" xmlns="http://www.w3.org/2000/svg" xmlns:xlink="http://www.w3.org/1999/xlink" width="27.3779" height="27.0264">
 <g>
  <rect height="27.0264" opacity="0" width="27.3779" x="0" y="0"/>
  <path d="M25.2979 1.72852C23.8037 0.234375 21.6943 0 19.1895 0L7.77832 0C5.31738 0 3.20801 0.234375 1.71387 1.72852C0.219727 3.22266 0 5.31738 0 7.77832L0 19.1895C0 21.6943 0.219727 23.7891 1.71387 25.2832C3.20801 26.7773 5.31738 27.0117 7.80762 27.0117L19.1895 27.0117C21.6943 27.0117 23.8037 26.7773 25.2979 25.2832C26.792 23.7891 27.0117 21.6943 27.0117 19.1895L27.0117 7.80762C27.0117 5.30273 26.792 3.22266 25.2979 1.72852Z" fill="#d49d00"/>
 </g>
</svg>
