<?xml version="1.0" encoding="UTF-8"?>
<!--Generator: Apple Native CoreSVG 232.5-->
<!DOCTYPE svg
PUBLIC "-//W3C//DTD SVG 1.1//EN"
       "http://www.w3.org/Graphics/SVG/1.1/DTD/svg11.dtd">
<svg version="1.1" xmlns="http://www.w3.org/2000/svg" xmlns:xlink="http://www.w3.org/1999/xlink" width="39.0381" height="24.2139">
 <g>
  <rect height="24.2139" opacity="0" width="39.0381" x="0" y="0"/>
  <path d="M4.2041 19.6582C4.2041 19.8926 4.33594 20.0098 4.55566 20.0098L16.0107 20.0098C14.458 18.4277 13.5498 15.6299 13.5498 12.085C13.5498 8.55469 14.458 5.77148 15.9814 4.2041L4.55566 4.2041C4.33594 4.2041 4.2041 4.32129 4.2041 4.55566ZM15.3076 12.085C15.3076 16.6553 16.8896 19.7168 19.2773 19.7168C21.7383 19.7168 23.3936 16.6553 23.3936 12.085C23.3936 7.51465 21.7383 4.46777 19.2773 4.46777C16.8896 4.46777 15.3076 7.51465 15.3076 12.085ZM22.6318 20.0098L34.1162 20.0098C34.3359 20.0098 34.4678 19.8926 34.4678 19.6582L34.4678 4.55566C34.4678 4.32129 34.3359 4.2041 34.1162 4.2041L22.6465 4.2041C24.2139 5.77148 25.1367 8.55469 25.1367 12.085C25.1367 15.6299 24.1992 18.4277 22.6318 20.0098Z" fill="#031fa3"/>
  <path d="M0 23.042C0 23.7451 0.46875 24.2139 1.17188 24.2139L37.5146 24.2139C38.2178 24.2139 38.6719 23.7451 38.6719 23.042L38.6719 1.15723C38.6719 0.454102 38.2178 0 37.5146 0L1.17188 0C0.46875 0 0 0.454102 0 1.15723ZM2.68066 20.6396L2.68066 3.57422C2.68066 2.98828 3.01758 2.68066 3.55957 2.68066L35.1123 2.68066C35.6689 2.68066 35.9912 2.98828 35.9912 3.57422L35.9912 20.6396C35.9912 21.2109 35.6689 21.5332 35.1123 21.5332L3.55957 21.5332C3.01758 21.5332 2.68066 21.2109 2.68066 20.6396Z" fill="#031fa3"/>
 </g>
</svg>
