<?xml version="1.0" encoding="UTF-8"?>
<!--Generator: Apple Native CoreSVG 232.5-->
<!DOCTYPE svg
PUBLIC "-//W3C//DTD SVG 1.1//EN"
       "http://www.w3.org/Graphics/SVG/1.1/DTD/svg11.dtd">
<svg version="1.1" xmlns="http://www.w3.org/2000/svg" xmlns:xlink="http://www.w3.org/1999/xlink" width="48.6328" height="44.5898">
 <g>
  <rect height="44.5898" opacity="0" width="48.6328" x="0" y="0"/>
  <path d="M0 38.7305C0 41.7383 1.44531 43.2227 4.45312 43.2227L31.1328 43.2227C34.1211 43.2227 35.5859 41.7383 35.5859 38.7305L35.5859 4.51172C35.5859 1.50391 34.1211 0 31.1328 0L27.3047 0C24.3164 0 22.8516 1.50391 22.8516 4.51172L22.8516 12.2656C22.4219 12.168 21.9141 12.0898 21.3672 12.0898L12.8516 12.0898C12.2852 12.0898 11.7969 12.168 11.3477 12.2656L11.3477 9.92188C11.3477 6.91406 9.90234 5.41016 6.91406 5.41016L4.45312 5.41016C1.44531 5.41016 0 6.91406 0 9.92188ZM2.94922 38.4961L2.94922 10.1367C2.94922 8.98438 3.55469 8.35938 4.76562 8.35938L6.60156 8.35938C7.8125 8.35938 8.39844 8.98438 8.39844 10.1367L8.39844 40.2734L4.76562 40.2734C3.55469 40.2734 2.94922 39.6484 2.94922 38.4961ZM11.3477 40.2734L11.3477 16.8164C11.3477 15.6641 11.9531 15.0391 13.1641 15.0391L21.0547 15.0391C22.2656 15.0391 22.8516 15.6641 22.8516 16.8164L22.8516 40.2734ZM25.8008 40.2734L25.8008 4.72656C25.8008 3.57422 26.4062 2.94922 27.6172 2.94922L30.8203 2.94922C32.0508 2.94922 32.6367 3.57422 32.6367 4.72656L32.6367 38.4961C32.6367 39.6484 32.0508 40.2734 30.8203 40.2734ZM13.125 18.8281C13.125 19.5117 13.6328 20.0391 14.3555 20.0391L19.9023 20.0391C20.5859 20.0391 21.1133 19.5117 21.1133 18.8281C21.1133 18.1641 20.5859 17.6367 19.9023 17.6367L14.3555 17.6367C13.6328 17.6367 13.125 18.1641 13.125 18.8281ZM13.125 36.4844C13.125 37.168 13.6328 37.6953 14.3555 37.6953L19.9023 37.6953C20.5859 37.6953 21.1133 37.168 21.1133 36.4844C21.1133 35.8203 20.5859 35.293 19.9023 35.293L14.3555 35.293C13.6328 35.293 13.125 35.8203 13.125 36.4844ZM37.3438 39.2773C37.7148 42.2461 39.2969 43.6328 42.2852 43.2227L44.3164 42.9492C47.3047 42.5391 48.5352 40.957 48.2031 37.9883L44.8438 8.78906C44.4922 5.82031 42.8906 4.41406 39.9023 4.84375L37.8711 5.11719C34.8633 5.54688 33.6133 7.10938 33.9648 10.0781ZM40.2344 38.6914L36.9336 9.96094C36.7969 8.80859 37.3242 8.16406 38.5352 7.98828L39.9414 7.8125C41.1523 7.63672 41.8164 8.22266 41.9531 9.35547L45.2539 38.0859C45.3906 39.2578 44.8633 39.8828 43.6719 40.0586L42.2266 40.2539C41.0352 40.4297 40.3711 39.8633 40.2344 38.6914Z" fill="#000000"/>
 </g>
</svg>
