<?xml version="1.0" encoding="UTF-8"?>
<!--Generator: Apple Native CoreSVG 232.5-->
<!DOCTYPE svg
PUBLIC "-//W3C//DTD SVG 1.1//EN"
       "http://www.w3.org/Graphics/SVG/1.1/DTD/svg11.dtd">
<svg version="1.1" xmlns="http://www.w3.org/2000/svg" xmlns:xlink="http://www.w3.org/1999/xlink" width="47.0898" height="44.5898">
 <g>
  <rect height="44.5898" opacity="0" width="47.0898" x="0" y="0"/>
  <path d="M2.40234 43.2227L6.09375 43.2227C7.63672 43.2227 8.49609 42.3438 8.49609 40.8203L8.49609 7.83203C8.49609 6.28906 7.63672 5.41016 6.09375 5.41016L2.40234 5.41016C0.839844 5.41016 0 6.28906 0 7.83203L0 40.8203C0 42.3438 0.839844 43.2227 2.40234 43.2227ZM13.1836 43.2227L21.0938 43.2227C22.6562 43.2227 23.4961 42.3438 23.4961 40.8203L23.4961 14.4922C23.4961 12.9688 22.6562 12.0898 21.0938 12.0898L13.1836 12.0898C11.6211 12.0898 10.7617 12.9688 10.7617 14.4922L10.7617 40.8203C10.7617 42.3438 11.6211 43.2227 13.1836 43.2227ZM15.0391 19.0625C14.3359 19.0625 13.8086 18.5352 13.8086 17.8516C13.8086 17.1875 14.3359 16.6602 15.0391 16.6602L19.2773 16.6602C19.9609 16.6602 20.4688 17.1875 20.4688 17.8516C20.4688 18.5352 19.9609 19.0625 19.2773 19.0625ZM15.0391 38.6719C14.3359 38.6719 13.8086 38.1445 13.8086 37.4609C13.8086 36.7969 14.3359 36.2695 15.0391 36.2695L19.2773 36.2695C19.9609 36.2695 20.4688 36.7969 20.4688 37.4609C20.4688 38.1445 19.9609 38.6719 19.2773 38.6719ZM28.1836 43.2227L33.0078 43.2227C34.5703 43.2227 35.4102 42.3438 35.4102 40.8203L35.4102 2.42188C35.4102 0.878906 34.5703 0 33.0078 0L28.1836 0C26.6211 0 25.7812 0.878906 25.7812 2.42188L25.7812 40.8203C25.7812 42.3438 26.6211 43.2227 28.1836 43.2227ZM41.4648 43.3203L44.6094 42.8711C46.1328 42.6758 46.875 41.7383 46.6992 40.1953L42.9688 7.79297C42.793 6.26953 41.875 5.46875 40.3125 5.68359L37.1875 6.13281C35.6445 6.32812 34.9023 7.26562 35.0781 8.78906L38.8281 41.1914C39.0039 42.7148 39.9219 43.5156 41.4648 43.3203Z" fill="#daa100"/>
 </g>
</svg>
