<?xml version="1.0" encoding="UTF-8"?>
<!--Generator: Apple Native CoreSVG 232.5-->
<!DOCTYPE svg
PUBLIC "-//W3C//DTD SVG 1.1//EN"
       "http://www.w3.org/Graphics/SVG/1.1/DTD/svg11.dtd">
<svg version="1.1" xmlns="http://www.w3.org/2000/svg" xmlns:xlink="http://www.w3.org/1999/xlink" width="61.0742" height="50.0586">
 <g>
  <rect height="50.0586" opacity="0" width="61.0742" x="0" y="0"/>
  <path d="M45.238 9.92188L31.6992 9.92188C24.5508 9.92188 20.4492 14.1602 20.4492 21.1523L20.4492 31.7188C20.4492 33.9559 20.8691 35.9111 21.6789 37.5318L17.1289 41.582C15.957 42.6172 15.293 43.125 14.3164 43.125C12.9688 43.125 12.1875 42.168 12.1875 40.6641L12.1875 35.5664L11.25 35.5664C5.44922 35.5664 2.30469 32.3633 2.30469 26.6406L2.30469 11.6602C2.30469 5.9375 5.44922 2.71484 11.25 2.71484L36.4062 2.71484C41.6059 2.71484 44.6545 5.28685 45.238 9.92188Z" fill="#999999"/>
  <path d="M31.6992 40.2734L38.0078 40.2734L44.5312 45.8594C45.7227 46.875 46.3672 47.4023 47.3242 47.4023C48.6719 47.4023 49.4336 46.4453 49.4336 44.9609L49.4336 40.2734L49.8242 40.2734C55.4492 40.2734 58.3984 37.2461 58.3984 31.7188L58.3984 21.1523C58.3984 15.6055 55.4492 12.5781 49.8242 12.5781L31.6992 12.5781C26.0742 12.5781 23.125 15.6055 23.125 21.1523L23.125 31.7188C23.125 37.2656 26.0742 40.2734 31.6992 40.2734Z" fill="#999999"/>
 </g>
</svg>
