<?xml version="1.0" encoding="UTF-8"?>
<!--Generator: Apple Native CoreSVG 232.5-->
<!DOCTYPE svg
PUBLIC "-//W3C//DTD SVG 1.1//EN"
       "http://www.w3.org/Graphics/SVG/1.1/DTD/svg11.dtd">
<svg version="1.1" xmlns="http://www.w3.org/2000/svg" xmlns:xlink="http://www.w3.org/1999/xlink" width="31.875" height="30.542">
 <g>
  <rect height="30.542" opacity="0" width="31.875" x="0" y="0"/>
  <path d="M0 29.3555C0 30 0.527344 30.542 1.17188 30.542L30.3223 30.542C30.9668 30.542 31.5088 30 31.5088 29.3555C31.5088 28.7109 30.9668 28.1836 30.3223 28.1836L1.17188 28.1836C0.527344 28.1836 0 28.7109 0 29.3555ZM2.56348 12.583C2.56348 13.1836 2.90039 13.5205 3.50098 13.5205L7.25098 13.5205C7.85156 13.5205 8.20312 13.1836 8.20312 12.583L8.20312 12.2314C8.20312 11.6602 7.85156 11.3086 7.25098 11.3086L3.50098 11.3086C2.90039 11.3086 2.56348 11.6602 2.56348 12.2314ZM4.27734 25.1074L6.48926 25.1074L6.48926 12.7295L4.27734 12.7295ZM2.56348 25.957C2.56348 26.5576 2.90039 26.8945 3.50098 26.8945L7.25098 26.8945C7.85156 26.8945 8.20312 26.5576 8.20312 25.957L8.20312 25.6055C8.20312 25.0342 7.85156 24.6826 7.25098 24.6826L3.50098 24.6826C2.90039 24.6826 2.56348 25.0342 2.56348 25.6055ZM9.52148 12.583C9.52148 13.1836 9.87305 13.5205 10.459 13.5205L14.2236 13.5205C14.8096 13.5205 15.1611 13.1836 15.1611 12.583L15.1611 12.2314C15.1611 11.6602 14.8096 11.3086 14.2236 11.3086L10.459 11.3086C9.87305 11.3086 9.52148 11.6602 9.52148 12.2314ZM11.25 25.1074L13.4619 25.1074L13.4619 12.7295L11.25 12.7295ZM9.52148 25.957C9.52148 26.5576 9.87305 26.8945 10.459 26.8945L14.2236 26.8945C14.8096 26.8945 15.1611 26.5576 15.1611 25.957L15.1611 25.6055C15.1611 25.0342 14.8096 24.6826 14.2236 24.6826L10.459 24.6826C9.87305 24.6826 9.52148 25.0342 9.52148 25.6055ZM16.4941 12.583C16.4941 13.1836 16.8457 13.5205 17.4316 13.5205L21.1963 13.5205C21.7822 13.5205 22.1338 13.1836 22.1338 12.583L22.1338 12.2314C22.1338 11.6602 21.7822 11.3086 21.1963 11.3086L17.4316 11.3086C16.8457 11.3086 16.4941 11.6602 16.4941 12.2314ZM18.2227 25.1074L20.4346 25.1074L20.4346 12.7295L18.2227 12.7295ZM16.4941 25.957C16.4941 26.5576 16.8457 26.8945 17.4316 26.8945L21.1963 26.8945C21.7822 26.8945 22.1338 26.5576 22.1338 25.957L22.1338 25.6055C22.1338 25.0342 21.7822 24.6826 21.1963 24.6826L17.4316 24.6826C16.8457 24.6826 16.4941 25.0342 16.4941 25.6055ZM23.4668 12.583C23.4668 13.1836 23.8037 13.5205 24.4043 13.5205L28.1543 13.5205C28.7549 13.5205 29.0918 13.1836 29.0918 12.583L29.0918 12.2314C29.0918 11.6602 28.7549 11.3086 28.1543 11.3086L24.4043 11.3086C23.8037 11.3086 23.4668 11.6602 23.4668 12.2314ZM25.1807 25.1074L27.3926 25.1074L27.3926 12.7295L25.1807 12.7295ZM23.4668 25.957C23.4668 26.5576 23.8037 26.8945 24.4043 26.8945L28.1543 26.8945C28.7549 26.8945 29.0918 26.5576 29.0918 25.957L29.0918 25.6055C29.0918 25.0342 28.7549 24.6826 28.1543 24.6826L24.4043 24.6826C23.8037 24.6826 23.4668 25.0342 23.4668 25.6055ZM1.93359 10.0342L29.5605 10.0342C30.3662 10.0342 30.835 9.44824 30.835 8.84766C30.835 8.4082 30.6006 8.02734 30.0586 7.71973L17.5488 0.512695C16.9629 0.175781 16.3477 0 15.7471 0C15.1465 0 14.5312 0.175781 13.9453 0.512695L1.43555 7.71973C0.893555 8.02734 0.65918 8.4082 0.65918 8.84766C0.65918 9.44824 1.11328 10.0342 1.93359 10.0342Z" fill="#02530e"/>
 </g>
</svg>
