<?xml version="1.0" encoding="UTF-8"?>
<!--Generator: Apple Native CoreSVG 232.5-->
<!DOCTYPE svg
PUBLIC "-//W3C//DTD SVG 1.1//EN"
       "http://www.w3.org/Graphics/SVG/1.1/DTD/svg11.dtd">
<svg version="1.1" xmlns="http://www.w3.org/2000/svg" xmlns:xlink="http://www.w3.org/1999/xlink" width="31.1133" height="45.4102">
 <g>
  <rect height="45.4102" opacity="0" width="31.1133" x="0" y="0"/>
  <path d="M1.11328 32.8125C1.11328 38.2031 4.47266 41.6406 9.72656 41.6406C13.6523 41.6406 16.582 39.9219 18.4375 36.6016L20.1953 33.457C24.3164 25.918 31.1133 24.9414 31.1133 15.2539C31.1133 6.11328 25.1953 0 16.3281 0C7.24609 0 1.11328 6.15234 1.11328 15.332ZM4.0625 32.6172L4.0625 15.332C4.0625 7.89062 8.96484 2.94922 16.3281 2.94922C23.4375 2.94922 28.1641 7.89062 28.1641 15.2539C28.1641 23.3594 21.8164 24.7656 17.5586 32.1289L15.8594 35.0391C14.4727 37.4609 12.5391 38.6133 9.86328 38.6133C6.25 38.6133 4.0625 36.3477 4.0625 32.6172ZM8.22266 25.2734C9.02344 25.2734 9.70703 24.5898 9.70703 23.7891L9.70703 15.2148C9.70703 11.4648 12.3242 8.98438 16.3086 8.98438C20.0977 8.98438 22.5391 11.4453 22.5391 15.2148C22.5391 16.0156 23.2031 16.6992 24.0039 16.6992C24.8047 16.6992 25.4883 16.0156 25.4883 15.2148C25.4883 9.72656 21.8164 6.03516 16.3086 6.03516C10.6055 6.03516 6.75781 9.72656 6.75781 15.2148L6.75781 23.7891C6.75781 24.5898 7.42188 25.2734 8.22266 25.2734ZM8.06641 19.4727L14.668 19.4727C15.9961 19.4727 16.8359 20.2734 16.8359 21.4453C16.8359 22.0508 16.5234 22.8711 16.0547 23.4375L13.7109 26.3867C13.457 26.7188 13.3203 27.0703 13.3203 27.4414C13.3203 28.2422 14.0039 28.9062 14.8047 28.9062C15.2539 28.9062 15.6836 28.6719 16.0156 28.2617L18.5547 25.0391C19.3555 24.0234 19.8828 22.5391 19.8828 21.3281C19.8828 18.457 17.793 16.5234 14.6289 16.5234L8.06641 16.5234Z" fill="#000000"/>
 </g>
</svg>
