<?xml version="1.0" encoding="UTF-8"?>
<!--Generator: Apple Native CoreSVG 232.5-->
<!DOCTYPE svg
PUBLIC "-//W3C//DTD SVG 1.1//EN"
       "http://www.w3.org/Graphics/SVG/1.1/DTD/svg11.dtd">
<svg version="1.1" xmlns="http://www.w3.org/2000/svg" xmlns:xlink="http://www.w3.org/1999/xlink" width="46.9922" height="44.3262">
 <g>
  <rect height="44.3262" opacity="0" width="46.9922" x="0" y="0"/>
  <path d="M28.3398 37.876L18.2617 37.876L18.2617 24.9658C18.2617 24.0674 18.8672 23.4814 19.7656 23.4814L26.8555 23.4814C27.7539 23.4814 28.3398 24.0674 28.3398 24.9658ZM6.09375 36.7041C6.09375 39.4189 7.73438 41.0205 10.4883 41.0205L36.1719 41.0205C38.9258 41.0205 40.5469 39.4189 40.5469 36.7041L40.5469 21.2354L24.4922 7.77832C23.75 7.15332 22.8711 7.17285 22.1484 7.77832L6.09375 21.2354ZM0 19.2822C0 20.083 0.625 20.8447 1.67969 20.8447C2.22656 20.8447 2.67578 20.5518 3.08594 20.2197L22.6367 3.81348C23.0664 3.42285 23.5938 3.42285 24.0234 3.81348L43.5742 20.2197C43.9648 20.5518 44.4141 20.8447 44.9609 20.8447C45.8789 20.8447 46.6211 20.2783 46.6211 19.3408C46.6211 18.7549 46.4258 18.3643 46.0156 18.0127L25.6836 0.922852C24.2383-0.307617 22.4414-0.307617 20.9766 0.922852L0.625 18.0127C0.195312 18.3643 0 18.833 0 19.2822ZM35.6445 10.4736L40.5469 14.6143L40.5469 5.59082C40.5469 4.73145 40 4.18457 39.1406 4.18457L37.0508 4.18457C36.2109 4.18457 35.6445 4.73145 35.6445 5.59082Z" fill="#000000"/>
 </g>
</svg>
