<?xml version="1.0" encoding="UTF-8"?>
<svg xmlns="http://www.w3.org/2000/svg" viewBox="0 0 26 26" width="26" height="26" aria-hidden="true">
  <path d="M13.05 6.1c1.72 0 3.12 1.34 3.12 3.01 0 1.66-1.4 3.01-3.12 3.01-1.73 0-3.13-1.35-3.13-3.01 0-1.67 1.4-3.01 3.13-3.01Zm-4.55 9.95c0-2.45 2.04-4.43 4.55-4.43s4.55 1.98 4.55 4.43v.55c0 .42-.34.76-.76.76H9.26c-.42 0-.76-.34-.76-.76v-.55Z" fill="none" stroke="#5c6370" stroke-width="1.35" stroke-linejoin="round"/>
  <circle cx="18.51" cy="12.13" r="1.55" fill="none" stroke="#5c6370" stroke-width="1.35"/>
  <path d="M17.35 13.55l1.16 1.16M19.67 13.55l-1.16 1.16" fill="none" stroke="#5c6370" stroke-width="1.35" stroke-linecap="round"/>
</svg>
