<?xml version="1.0" encoding="UTF-8"?>
<!--Generator: Apple Native CoreSVG 232.5-->
<!DOCTYPE svg
PUBLIC "-//W3C//DTD SVG 1.1//EN"
       "http://www.w3.org/Graphics/SVG/1.1/DTD/svg11.dtd">
<svg version="1.1" xmlns="http://www.w3.org/2000/svg" xmlns:xlink="http://www.w3.org/1999/xlink" width="30.249" height="29.8975">
 <g>
  <rect height="29.8975" opacity="0" width="30.249" x="0" y="0"/>
  <path d="M14.9414 29.8828C23.1152 29.8828 29.8828 23.1006 29.8828 14.9414C29.8828 6.76758 23.1006 0 14.9268 0C6.76758 0 0 6.76758 0 14.9414C0 23.1006 6.78223 29.8828 14.9414 29.8828ZM14.9414 27.3926C8.02734 27.3926 2.50488 21.8555 2.50488 14.9414C2.50488 8.02734 8.0127 2.49023 14.9268 2.49023C21.8408 2.49023 27.3926 8.02734 27.3926 14.9414C27.3926 21.8555 21.8555 27.3926 14.9414 27.3926Z" fill="#000000"/>
  <path d="M9.56543 22.1777L20.2881 22.1777C21.9287 22.1777 22.749 21.3574 22.749 19.7461L22.749 10.1367C22.749 8.52539 21.9287 7.70508 20.2881 7.70508L9.56543 7.70508C7.9248 7.70508 7.10449 8.51074 7.10449 10.1367L7.10449 19.7461C7.10449 21.3574 7.9248 22.1777 9.56543 22.1777ZM9.46289 20.8301C8.80371 20.8301 8.45215 20.5078 8.45215 19.8047L8.45215 12.3926C8.45215 11.6748 8.83301 11.3086 9.53613 11.3086L20.3174 11.3086C21.0059 11.3086 21.4014 11.6748 21.4014 12.3926L21.4014 19.8047C21.4014 20.5078 21.0645 20.8301 20.376 20.8301ZM13.3447 14.2383L13.8867 14.2383C14.2236 14.2383 14.3408 14.1504 14.3408 13.8135L14.3408 13.2715C14.3408 12.9346 14.2236 12.8174 13.8867 12.8174L13.3447 12.8174C13.0078 12.8174 12.9053 12.9346 12.9053 13.2715L12.9053 13.8135C12.9053 14.1504 13.0078 14.2383 13.3447 14.2383ZM15.9668 14.2383L16.5088 14.2383C16.8457 14.2383 16.9482 14.1504 16.9482 13.8135L16.9482 13.2715C16.9482 12.9346 16.8457 12.8174 16.5088 12.8174L15.9668 12.8174C15.6299 12.8174 15.5273 12.9346 15.5273 13.2715L15.5273 13.8135C15.5273 14.1504 15.6299 14.2383 15.9668 14.2383ZM18.5742 14.2383L19.1016 14.2383C19.4385 14.2383 19.5557 14.1504 19.5557 13.8135L19.5557 13.2715C19.5557 12.9346 19.4385 12.8174 19.1016 12.8174L18.5742 12.8174C18.2227 12.8174 18.1201 12.9346 18.1201 13.2715L18.1201 13.8135C18.1201 14.1504 18.2227 14.2383 18.5742 14.2383ZM10.752 16.8018L11.2939 16.8018C11.6309 16.8018 11.7334 16.7139 11.7334 16.377L11.7334 15.835C11.7334 15.498 11.6309 15.3809 11.2939 15.3809L10.752 15.3809C10.415 15.3809 10.2979 15.498 10.2979 15.835L10.2979 16.377C10.2979 16.7139 10.415 16.8018 10.752 16.8018ZM13.3447 16.8018L13.8867 16.8018C14.2236 16.8018 14.3408 16.7139 14.3408 16.377L14.3408 15.835C14.3408 15.498 14.2236 15.3809 13.8867 15.3809L13.3447 15.3809C13.0078 15.3809 12.9053 15.498 12.9053 15.835L12.9053 16.377C12.9053 16.7139 13.0078 16.8018 13.3447 16.8018ZM15.9668 16.8018L16.5088 16.8018C16.8457 16.8018 16.9482 16.7139 16.9482 16.377L16.9482 15.835C16.9482 15.498 16.8457 15.3809 16.5088 15.3809L15.9668 15.3809C15.6299 15.3809 15.5273 15.498 15.5273 15.835L15.5273 16.377C15.5273 16.7139 15.6299 16.8018 15.9668 16.8018ZM18.5742 16.8018L19.1016 16.8018C19.4385 16.8018 19.5557 16.7139 19.5557 16.377L19.5557 15.835C19.5557 15.498 19.4385 15.3809 19.1016 15.3809L18.5742 15.3809C18.2227 15.3809 18.1201 15.498 18.1201 15.835L18.1201 16.377C18.1201 16.7139 18.2227 16.8018 18.5742 16.8018ZM10.752 19.3799L11.2939 19.3799C11.6309 19.3799 11.7334 19.2773 11.7334 18.9404L11.7334 18.3838C11.7334 18.0615 11.6309 17.959 11.2939 17.959L10.752 17.959C10.415 17.959 10.2979 18.0615 10.2979 18.3838L10.2979 18.9404C10.2979 19.2773 10.415 19.3799 10.752 19.3799ZM13.3447 19.3799L13.8867 19.3799C14.2236 19.3799 14.3408 19.2773 14.3408 18.9404L14.3408 18.3838C14.3408 18.0615 14.2236 17.959 13.8867 17.959L13.3447 17.959C13.0078 17.959 12.9053 18.0615 12.9053 18.3838L12.9053 18.9404C12.9053 19.2773 13.0078 19.3799 13.3447 19.3799ZM15.9668 19.3799L16.5088 19.3799C16.8457 19.3799 16.9482 19.2773 16.9482 18.9404L16.9482 18.3838C16.9482 18.0615 16.8457 17.959 16.5088 17.959L15.9668 17.959C15.6299 17.959 15.5273 18.0615 15.5273 18.3838L15.5273 18.9404C15.5273 19.2773 15.6299 19.3799 15.9668 19.3799Z" fill="#000000"/>
 </g>
</svg>
