<?xml version="1.0" encoding="UTF-8"?>
<!--Generator: Apple Native CoreSVG 232.5-->
<!DOCTYPE svg
PUBLIC "-//W3C//DTD SVG 1.1//EN"
       "http://www.w3.org/Graphics/SVG/1.1/DTD/svg11.dtd">
<svg version="1.1" xmlns="http://www.w3.org/2000/svg" xmlns:xlink="http://www.w3.org/1999/xlink" width="40.2148" height="39.8633">
 <g>
  <rect height="39.8633" opacity="0" width="40.2148" x="0" y="0"/>
  <path d="M9.70703 22.0312C8.92578 22.0312 8.33984 21.4453 8.33984 20.6641C8.33984 19.9023 8.92578 19.3164 9.70703 19.3164L18.5547 19.3164L18.5547 7.5C18.5547 6.73828 19.1406 6.15234 19.9023 6.15234C20.6641 6.15234 21.2695 6.73828 21.2695 7.5L21.2695 20.6641C21.2695 21.4453 20.6641 22.0312 19.9023 22.0312ZM19.9219 39.8438C30.8203 39.8438 39.8438 30.8008 39.8438 19.9219C39.8438 9.02344 30.8008 0 19.9023 0C9.02344 0 0 9.02344 0 19.9219C0 30.8008 9.04297 39.8438 19.9219 39.8438Z" fill="#044166"/>
 </g>
</svg>
