<?xml version="1.0" encoding="UTF-8"?>
<!--Generator: Apple Native CoreSVG 232.5-->
<!DOCTYPE svg
PUBLIC "-//W3C//DTD SVG 1.1//EN"
       "http://www.w3.org/Graphics/SVG/1.1/DTD/svg11.dtd">
<svg version="1.1" xmlns="http://www.w3.org/2000/svg" xmlns:xlink="http://www.w3.org/1999/xlink" width="46.2695" height="33.3789">
 <g>
  <rect height="33.3789" opacity="0" width="46.2695" x="0" y="0"/>
  <path d="M7.98828 27.3242C6.83594 27.3242 6.07422 26.543 6.07422 25.4492L6.07422 21.8359C6.07422 20.7227 6.83594 19.9609 7.98828 19.9609L12.7734 19.9609C13.9258 19.9609 14.6875 20.7227 14.6875 21.8359L14.6875 25.4492C14.6875 26.543 13.9258 27.3242 12.7734 27.3242ZM0 12.3242L0 7.89062L45.8984 7.89062L45.8984 12.3242ZM6.13281 33.3789L39.7656 33.3789C43.8672 33.3789 45.8984 31.3672 45.8984 27.3438L45.8984 6.07422C45.8984 2.05078 43.8672 0.0195312 39.7656 0.0195312L6.13281 0.0195312C2.05078 0.0195312 0 2.05078 0 6.07422L0 27.3438C0 31.3672 2.05078 33.3789 6.13281 33.3789Z" fill="#044166"/>
 </g>
</svg>
