<svg xmlns="http://www.w3.org/2000/svg" viewBox="0 0 25 41" width="25" height="41" aria-hidden="true">
  <path d="M24.639 10.386V32.593c0 3.076-1.509 4.6-4.541 4.6H4.541c-3.032 0-4.541-1.524-4.541-4.6V10.386c0-3.076 1.509-4.6 4.541-4.6h.194a1.37 1.37 0 0 1-.047.359H4.658C3.135 6.145 2.358 6.965 2.358 8.415v22.149c0 1.464.777 2.27 2.3 2.27h15.323c1.523 0 2.3-.806 2.3-2.27V10.415c0-1.45-.777-2.27-2.3-2.27h-.089a1.37 1.37 0 0 1 .029-.359h.194c3.032 0 4.541 1.524 4.541 4.6Z" fill="#5c6370"/>
  <path d="M7.793 9.141h9.053c.85 0 1.362-.542 1.362-1.45V6.152c0-.908-.513-1.45-1.362-1.45h-1.348A2.62 2.62 0 0 0 12.319 1.699 2.62 2.62 0 0 0 9.14 4.702H7.793c-.85 0-1.362.542-1.362 1.45v1.538c0 .908.512 1.45 1.362 1.45Zm4.526-3.047a1.29 1.29 0 1 1 0 2.563 1.29 1.29 0 0 1 0-2.563Z" fill="#5c6370"/>
  <path d="M5.86 27.993h6.504a.907.907 0 1 0 0-1.816H5.86a.907.907 0 1 0 0 1.816ZM5.86 22.515h12.92a.907.907 0 1 0 0-1.816H5.86a.907.907 0 1 0 0 1.816ZM5.86 17.314h12.92a.919.919 0 1 0 0-1.831H5.86a.919.919 0 1 0 0 1.831Z" fill="#5c6370"/>
</svg>
