<svg xmlns="http://www.w3.org/2000/svg" viewBox="0 0 25 41" width="25" height="41" aria-hidden="true">
  <path d="M4.717 6.152v1.538c0 1.846 1.289 3.15 3.076 3.15h9.053c1.787 0 3.076-1.304 3.076-3.15V6.152c0-.13-.006-.257-.02-.381h.196c3.032 0 4.541 1.524 4.541 4.6v22.222c0 3.076-1.509 4.6-4.541 4.6H4.541c-3.032 0-4.541-1.524-4.541-4.6V10.371c0-3.076 1.509-4.524 4.541-4.524h.196a1.37 1.37 0 0 1-.018-.395ZM5.654 27.48a.907.907 0 0 1-.907-.907v-.563a.907.907 0 0 1 .907-.907h6.709a.907.907 0 0 1 .907.907v.563a.907.907 0 0 1-.907.907H5.654Zm0-5.654a.907.907 0 0 1-.907-.938v-.563a.907.907 0 0 1 .907-.906h13.33a.907.907 0 0 1 .907.906v.563a.907.907 0 0 1-.907.938H5.654Zm0-5.376a.907.907 0 0 1-.907-.967v-.563a.907.907 0 0 1 .907-.906h13.33a.907.907 0 0 1 .907.906v.563a.907.907 0 0 1-.907.967H5.654Z" fill="#024165"/>
  <path d="M15.498 4.702h1.348c.85 0 1.362.542 1.362 1.45v1.538c0 .908-.512 1.451-1.362 1.451H7.793c-.85 0-1.362-.543-1.362-1.451V6.152c0-.908.513-1.45 1.362-1.45h1.348A2.62 2.62 0 0 1 12.319 1.699 2.62 2.62 0 0 1 15.498 4.702Zm-4.178-1.883a1.29 1.29 0 1 0 0 2.563 1.29 1.29 0 0 0 0-2.563Z" fill="#024165"/>
</svg>
