<?xml version="1.0" encoding="UTF-8"?>
<!--Generator: Apple Native CoreSVG 232.5-->
<!DOCTYPE svg
PUBLIC "-//W3C//DTD SVG 1.1//EN"
       "http://www.w3.org/Graphics/SVG/1.1/DTD/svg11.dtd">
<svg version="1.1" xmlns="http://www.w3.org/2000/svg" xmlns:xlink="http://www.w3.org/1999/xlink" width="29.8828" height="25.3271">
 <g>
  <rect height="25.3271" opacity="0" width="29.8828" x="0" y="0"/>
  <path d="M1.09863 2.21191L28.3887 2.21191C29.0039 2.21191 29.5166 1.72852 29.5166 1.09863C29.5166 0.483398 29.0039 0 28.3887 0L1.09863 0C0.483398 0 0 0.483398 0 1.09863C0 1.72852 0.483398 2.21191 1.09863 2.21191ZM1.09863 9.8877L28.3887 9.8877C29.0039 9.8877 29.5166 9.4043 29.5166 8.77441C29.5166 8.15918 29.0039 7.67578 28.3887 7.67578L1.09863 7.67578C0.483398 7.67578 0 8.15918 0 8.77441C0 9.4043 0.483398 9.8877 1.09863 9.8877ZM1.09863 17.5635L28.3887 17.5635C29.0039 17.5635 29.5166 17.0654 29.5166 16.4502C29.5166 15.835 29.0039 15.3516 28.3887 15.3516L1.09863 15.3516C0.483398 15.3516 0 15.835 0 16.4502C0 17.0654 0.483398 17.5635 1.09863 17.5635ZM1.09863 25.2246L16.7725 25.2246C17.3877 25.2246 17.8857 24.7412 17.8857 24.126C17.8857 23.5107 17.3877 23.0127 16.7725 23.0127L1.09863 23.0127C0.483398 23.0127 0 23.5107 0 24.126C0 24.7412 0.483398 25.2246 1.09863 25.2246Z" fill="#ffffff" fill-opacity="0.85"/>
 </g>
</svg>
