<?xml version="1.0" encoding="UTF-8"?>
<!--Generator: Apple Native CoreSVG 232.5-->
<!DOCTYPE svg
PUBLIC "-//W3C//DTD SVG 1.1//EN"
       "http://www.w3.org/Graphics/SVG/1.1/DTD/svg11.dtd">
<svg version="1.1" xmlns="http://www.w3.org/2000/svg" xmlns:xlink="http://www.w3.org/1999/xlink" width="33.0948" height="29.8975">
 <g>
  <rect height="29.8975" opacity="0" width="33.0948" x="0" y="0"/>
  <path d="M17.7852 29.8828C25.9444 29.8828 32.7266 23.1006 32.7266 14.9414C32.7266 6.76758 25.9444 0 17.7852 0C9.61135 0 2.84377 6.75293 2.84377 14.9268L5.33401 14.9268C5.33401 8.0127 10.8711 2.50488 17.7852 2.50488C24.6992 2.50488 30.2364 8.02734 30.2364 14.9414C30.2364 21.8555 24.6992 27.4219 17.7852 27.3926C13.6104 27.3779 9.94827 25.3564 7.70705 22.2363C7.25295 21.6357 6.56448 21.4453 5.94924 21.8115C5.3633 22.1777 5.20217 22.9834 5.70022 23.6279C8.48342 27.3633 12.8487 29.8828 17.7852 29.8828ZM1.04202 12.1143C-0.012672 12.1143-0.276344 12.832 0.294945 13.6523L3.5762 18.3105C4.05959 18.9844 4.76272 18.9697 5.23147 18.3105L8.51272 13.6377C9.06936 12.832 8.80569 12.1143 7.76565 12.1143Z" fill="#000000"/>
  <path d="M17.7852 23.3057C18.1807 23.3057 18.4737 23.0273 18.4737 22.6172L18.4737 21.5918C20.7442 21.3721 22.5166 20.0537 22.5166 17.8418C22.5166 15.8496 21.2129 14.6484 18.6787 14.1943L18.4737 14.1504L18.4737 10.0635C19.5137 10.2539 20.2461 10.8838 20.5391 11.8652C20.7002 12.3047 20.9639 12.583 21.4473 12.583C21.9453 12.583 22.2969 12.2314 22.2969 11.7188C22.2969 11.5723 22.2676 11.4258 22.2383 11.2646C21.8428 9.68262 20.3487 8.59863 18.4737 8.37891L18.4737 7.36816C18.4737 6.95801 18.1807 6.67969 17.7852 6.67969C17.375 6.67969 17.0821 6.95801 17.0821 7.36816L17.0821 8.37891C14.8701 8.62793 13.2881 10.0195 13.2881 12.0117C13.2881 13.8721 14.5479 14.9854 16.9795 15.5566L17.0821 15.5859L17.0821 19.9219C15.7637 19.7314 15.002 18.999 14.753 18.0176C14.5918 17.5195 14.2842 17.2852 13.8594 17.2852C13.3614 17.2852 13.0098 17.6367 13.0098 18.1494C13.0098 18.3105 13.0391 18.457 13.0684 18.6035C13.4932 20.2881 15.1338 21.3721 17.0821 21.5625L17.0821 22.6172C17.0821 23.0273 17.3897 23.3057 17.7852 23.3057ZM17.0821 13.7842L16.9795 13.7549C15.6758 13.374 15.0899 12.7881 15.0899 11.9238C15.0899 11.0303 15.8516 10.2832 17.0821 10.0635ZM18.4737 15.9375L18.7959 16.0107C20.2022 16.4062 20.7002 17.0068 20.7002 17.9443C20.7002 18.9697 19.9678 19.7461 18.4737 19.9219Z" fill="#000000"/>
 </g>
</svg>
