<?xml version="1.0" encoding="UTF-8"?>
<!--Generator: Apple Native CoreSVG 232.5-->
<!DOCTYPE svg
PUBLIC "-//W3C//DTD SVG 1.1//EN"
       "http://www.w3.org/Graphics/SVG/1.1/DTD/svg11.dtd">
<svg version="1.1" xmlns="http://www.w3.org/2000/svg" xmlns:xlink="http://www.w3.org/1999/xlink" width="39.668" height="42.4365">
 <g>
  <rect height="42.4365" opacity="0" width="39.668" x="0" y="0"/>
  <path d="M37.9102 14.5605L23.5693 7.99805C22.0752 7.32422 20.8594 7.00195 19.6436 7.03125C18.4424 7.00195 17.2266 7.32422 15.7178 7.99805L1.3916 14.5605C0.454102 14.9854 0 15.7324 0 16.4795C0 17.2266 0.454102 17.959 1.3916 18.3984L7.42676 21.1523L16.6992 16.8018C16.6113 16.6992 16.582 16.582 16.582 16.4795C16.582 15.5566 18.1348 14.8535 19.7021 14.8535C21.2842 14.8535 22.8076 15.5566 22.8076 16.4795C22.8076 17.4316 21.2842 18.1494 19.7021 18.1494C19.2188 18.1494 18.7354 18.0762 18.3105 17.959L9.46289 22.1045L15.7178 24.9756C17.2266 25.6641 18.4424 25.957 19.6436 25.9424C20.8594 25.957 22.0752 25.6641 23.5693 24.9756L37.9102 18.3984C38.8477 17.959 39.3018 17.2266 39.3018 16.4795C39.3018 15.7324 38.8477 14.9854 37.9102 14.5605ZM9.4043 24.2725L9.4043 33.1787C11.8652 34.6729 15.3809 35.5811 19.6436 35.5811C28.2861 35.5811 33.8525 31.875 33.8525 27.4951L33.8525 22.4561L24.4043 26.7773C22.6904 27.5684 21.1377 27.9639 19.6436 27.9492C18.1641 27.9639 16.5967 27.5684 14.8828 26.7773ZM5.44922 22.4561L5.44922 27.4951C5.44922 28.7695 6.18164 30.3516 7.5 31.6992L7.5 23.4082ZM7.5 36.5771L9.4043 36.5771L9.4043 33.1787C8.67188 32.7393 8.02734 32.2412 7.5 31.6992ZM6.34277 36.6797L6.34277 40.5322C6.34277 41.6895 7.08984 42.4365 8.24707 42.4365L8.64258 42.4365C9.7998 42.4365 10.5469 41.6895 10.5469 40.5322L10.5469 36.6797C10.5469 35.5225 9.7998 34.7754 8.64258 34.7754L8.24707 34.7754C7.08984 34.7754 6.34277 35.5225 6.34277 36.6797Z" fill="#98989d"/>
 </g>
</svg>
