<?xml version="1.0" encoding="UTF-8"?>
<!--Generator: Apple Native CoreSVG 232.5-->
<!DOCTYPE svg
PUBLIC "-//W3C//DTD SVG 1.1//EN"
       "http://www.w3.org/Graphics/SVG/1.1/DTD/svg11.dtd">
<svg version="1.1" xmlns="http://www.w3.org/2000/svg" xmlns:xlink="http://www.w3.org/1999/xlink" width="35.332" height="33.2446">
 <g>
  <rect height="33.2446" opacity="0" width="35.332" x="0" y="0"/>
  <path d="M21.2549 28.407L13.6963 28.407L13.6963 18.7244C13.6963 18.0505 14.1504 17.6111 14.8242 17.6111L20.1416 17.6111C20.8154 17.6111 21.2549 18.0505 21.2549 18.7244ZM4.57031 27.5281C4.57031 29.5642 5.80078 30.7654 7.86621 30.7654L27.1289 30.7654C29.1943 30.7654 30.4102 29.5642 30.4102 27.5281L30.4102 15.9265L18.3691 5.83374C17.8125 5.36499 17.1533 5.37964 16.6113 5.83374L4.57031 15.9265ZM0 14.4617C0 15.0623 0.46875 15.6335 1.25977 15.6335C1.66992 15.6335 2.00684 15.4138 2.31445 15.1648L16.9775 2.86011C17.2998 2.56714 17.6953 2.56714 18.0176 2.86011L32.6807 15.1648C32.9736 15.4138 33.3105 15.6335 33.7207 15.6335C34.4092 15.6335 34.9658 15.2087 34.9658 14.5056C34.9658 14.0662 34.8193 13.7732 34.5117 13.5095L19.2627 0.692139C18.1787-0.230713 16.8311-0.230713 15.7324 0.692139L0.46875 13.5095C0.146484 13.7732 0 14.1248 0 14.4617ZM26.7334 7.85522L30.4102 10.9607L30.4102 4.19312C30.4102 3.54858 30 3.13843 29.3555 3.13843L27.7881 3.13843C27.1582 3.13843 26.7334 3.54858 26.7334 4.19312Z" fill="#000000"/>
 </g>
</svg>
