<?xml version="1.0" encoding="UTF-8"?>
<!--Generator: Apple Native CoreSVG 232.5-->
<!DOCTYPE svg
PUBLIC "-//W3C//DTD SVG 1.1//EN"
       "http://www.w3.org/Graphics/SVG/1.1/DTD/svg11.dtd">
<svg version="1.1" xmlns="http://www.w3.org/2000/svg" xmlns:xlink="http://www.w3.org/1999/xlink" width="43.418" height="43.1445">
 <g>
  <rect height="43.1445" opacity="0" width="43.418" x="0" y="0"/>
  <path d="M43.0469 11.5625L43.0469 26.5234C43.0469 32.2461 39.9219 35.4492 34.1016 35.4492L20.8984 35.4492L13.8477 41.8945C12.9297 42.7539 12.3633 43.1445 11.6016 43.1445C10.4883 43.1445 9.86328 42.3438 9.86328 41.1328L9.86328 35.4492L8.94531 35.4492C3.125 35.4492 0 32.2656 0 26.5234L0 11.5625C0 5.82031 3.125 2.61719 8.94531 2.61719L34.1016 2.61719C39.9219 2.61719 43.0469 5.83984 43.0469 11.5625ZM19.2773 10.8203L13.6328 26.0156C13.457 26.4648 13.418 26.7578 13.418 27.0703C13.418 27.8906 14.0039 28.457 14.9219 28.457C15.6445 28.457 16.1523 28.125 16.4844 27.168L17.9492 22.8906L25.1172 22.8906L26.582 27.168C26.9141 28.125 27.4219 28.457 28.1641 28.457C29.0625 28.457 29.6484 27.8906 29.6484 27.0703C29.6484 26.7578 29.6094 26.4648 29.4336 26.0156L23.7891 10.8203C23.3984 9.76562 22.6172 9.23828 21.5234 9.23828C20.4297 9.23828 19.668 9.76562 19.2773 10.8203ZM24.3164 20.4492L18.75 20.4492L21.4258 12.6758L21.6406 12.6758Z" fill="#044166"/>
 </g>
</svg>
