<?xml version="1.0" encoding="UTF-8"?>
<!--Generator: Apple Native CoreSVG 232.5-->
<!DOCTYPE svg
PUBLIC "-//W3C//DTD SVG 1.1//EN"
       "http://www.w3.org/Graphics/SVG/1.1/DTD/svg11.dtd">
<svg version="1.1" xmlns="http://www.w3.org/2000/svg" xmlns:xlink="http://www.w3.org/1999/xlink" width="40.9961" height="38.3008">
 <g>
  <rect height="38.3008" opacity="0" width="40.9961" x="0" y="0"/>
  <path d="M0 35.3906C0 36.8164 0.820312 37.6367 2.22656 37.6367C2.73438 37.6367 3.22266 37.4805 3.86719 37.1289L12.0703 32.6953L12.0703 0.332031C11.7188 0.507812 11.3281 0.703125 10.9766 0.898438L1.71875 6.21094C0.546875 6.85547 0 7.79297 0 9.10156ZM14.7461 32.3242L24.5898 37.8516C24.8828 38.0078 25.1953 38.1445 25.4883 38.2227L25.4883 6.34766L15.8398 0.449219C15.5078 0.234375 15.1172 0.078125 14.7461 0ZM28.1445 38.1641C28.3398 38.1055 28.5547 38.0273 28.7305 37.9102L38.9062 32.1289C40.0781 31.4844 40.625 30.5469 40.625 29.2383L40.625 2.92969C40.625 1.48438 39.8047 0.683594 38.3984 0.683594C37.8906 0.683594 37.4023 0.839844 36.7578 1.19141L28.1445 5.97656Z" fill="#044166"/>
 </g>
</svg>
