<?xml version="1.0" encoding="UTF-8"?>
<!--Generator: Apple Native CoreSVG 232.5-->
<!DOCTYPE svg
PUBLIC "-//W3C//DTD SVG 1.1//EN"
       "http://www.w3.org/Graphics/SVG/1.1/DTD/svg11.dtd">
<svg version="1.1" xmlns="http://www.w3.org/2000/svg" xmlns:xlink="http://www.w3.org/1999/xlink" width="34.6729" height="32.7112">
 <g>
  <rect height="32.7112" opacity="0" width="34.6729" x="0" y="0"/>
  <path d="M0 13.067C0 14.4586 0.849609 15.3082 2.24121 15.3082L32.0508 15.3082C33.4424 15.3082 34.3066 14.4586 34.3066 13.067L34.3066 12.3492C34.3066 10.9723 33.4424 10.0934 32.0508 10.0934L2.24121 10.0934C0.849609 10.0934 0 10.9723 0 12.3492ZM9.31641 31.3922L24.9902 31.3922C28.374 31.3922 29.4287 29.4147 29.8535 27.2906L31.8896 17.3151L2.43164 17.3151L4.45312 27.2906C4.87793 29.4147 5.93262 31.3922 9.31641 31.3922ZM10.2686 28.8727C9.71191 28.9606 9.30176 28.6676 9.21387 28.1696L7.9541 20.8014C7.86621 20.3033 8.18848 19.9078 8.74512 19.8053C9.30176 19.7321 9.72656 20.0104 9.81445 20.5084L11.0596 27.8766C11.1328 28.3746 10.8398 28.7701 10.2686 28.8727ZM14.9121 28.858C14.3555 28.8873 13.9453 28.5504 13.916 28.0377L13.4326 20.7574C13.4033 20.2447 13.7695 19.8785 14.3115 19.8346C14.8828 19.7906 15.2637 20.1422 15.3076 20.6549L15.791 27.9352C15.8203 28.4479 15.4541 28.8287 14.9121 28.858ZM19.4238 28.858C18.8672 28.8287 18.501 28.4479 18.5303 27.9352L19.0137 20.6549C19.0576 20.1422 19.4385 19.7906 20.0098 19.8346C20.5518 19.8785 20.918 20.2447 20.8887 20.7574L20.4053 28.0377C20.376 28.5504 19.9658 28.8873 19.4238 28.858ZM24.0381 28.8727C23.4668 28.7701 23.1738 28.3746 23.2471 27.8766L24.4922 20.5084C24.5801 20.0104 25.0049 19.7321 25.5615 19.8053C26.1182 19.9078 26.4404 20.3326 26.3525 20.8307L25.0928 28.1696C25.0049 28.6676 24.5801 28.9606 24.0381 28.8727ZM4.7168 10.7233L7.64648 10.7233L12.8027 1.77307C13.1982 1.06994 12.876 0.45471 12.334 0.161741C11.8066-0.116579 11.1035-0.0726336 10.708 0.586546ZM26.6602 10.7233L29.5898 10.7233L23.5986 0.586546C23.2178-0.0579851 22.5146-0.10193 21.9727 0.161741C21.4453 0.45471 21.1084 1.06994 21.5039 1.77307Z" fill="#000000"/>
 </g>
</svg>
