<?xml version="1.0" encoding="UTF-8"?>
<!--Generator: Apple Native CoreSVG 232.5-->
<!DOCTYPE svg
PUBLIC "-//W3C//DTD SVG 1.1//EN"
       "http://www.w3.org/Graphics/SVG/1.1/DTD/svg11.dtd">
<svg version="1.1" xmlns="http://www.w3.org/2000/svg" xmlns:xlink="http://www.w3.org/1999/xlink" width="30.249" height="29.8975">
 <g>
  <rect height="29.8975" opacity="0" width="30.249" x="0" y="0"/>
  <path d="M29.8828 14.9414C29.8828 23.1006 23.1152 29.8828 14.9414 29.8828C6.78223 29.8828 0 23.1006 0 14.9414C0 6.76758 6.76758 0 14.9268 0C23.1006 0 29.8828 6.76758 29.8828 14.9414ZM11.3086 19.8193C10.6348 19.8193 10.166 20.2441 10.166 20.874C10.166 21.5186 10.6348 21.958 11.3086 21.958L18.6182 21.958C19.292 21.958 19.7754 21.5186 19.7754 20.874C19.7754 20.2441 19.292 19.8193 18.6182 19.8193ZM8.97949 14.7949C8.29102 14.7949 7.82227 15.2197 7.82227 15.8643C7.82227 16.5234 8.29102 16.9482 8.97949 16.9482L20.9619 16.9482C21.6357 16.9482 22.1045 16.5234 22.1045 15.8643C22.1045 15.2197 21.6357 14.7949 20.9619 14.7949ZM6.73828 9.7998C6.06445 9.7998 5.58105 10.2246 5.58105 10.8691C5.58105 11.5137 6.06445 11.9385 6.73828 11.9385L23.2031 11.9385C23.8623 11.9385 24.3604 11.5137 24.3604 10.8691C24.3604 10.2246 23.8623 9.7998 23.2031 9.7998Z" fill="#808080"/>
 </g>
</svg>
