<?xml version="1.0" encoding="UTF-8"?>
<!--Generator: Apple Native CoreSVG 232.5-->
<!DOCTYPE svg
PUBLIC "-//W3C//DTD SVG 1.1//EN"
       "http://www.w3.org/Graphics/SVG/1.1/DTD/svg11.dtd">
<svg version="1.1" xmlns="http://www.w3.org/2000/svg" xmlns:xlink="http://www.w3.org/1999/xlink" width="25.957" height="27.1436">
 <g>
  <rect height="27.1436" opacity="0" width="25.957" x="0" y="0"/>
  <path d="M3.58887 27.1289L22.002 27.1289C24.4336 27.1289 25.5908 26.3965 25.5908 24.7852C25.5908 20.9473 20.7422 15.3955 12.8027 15.3955C4.84863 15.3955 0 20.9473 0 24.7852C0 26.3965 1.15723 27.1289 3.58887 27.1289ZM2.90039 24.917C2.51953 24.917 2.3584 24.8145 2.3584 24.5068C2.3584 22.0898 6.0791 17.6074 12.8027 17.6074C19.5117 17.6074 23.2324 22.0898 23.2324 24.5068C23.2324 24.8145 23.0859 24.917 22.7051 24.917ZM12.8027 13.5645C16.2891 13.5645 19.1309 10.4736 19.1309 6.69434C19.1309 2.94434 16.3037 0 12.8027 0C9.33105 0 6.47461 3.00293 6.47461 6.72363C6.47461 10.4883 9.31641 13.5645 12.8027 13.5645ZM12.8027 11.3525C10.6641 11.3525 8.83301 9.31641 8.83301 6.72363C8.83301 4.1748 10.6348 2.21191 12.8027 2.21191C14.9854 2.21191 16.7725 4.13086 16.7725 6.69434C16.7725 9.28711 14.9561 11.3525 12.8027 11.3525Z" fill="#000000"/>
 </g>
</svg>
