<?xml version="1.0" encoding="UTF-8"?>
<!--Generator: Apple Native CoreSVG 232.5-->
<!DOCTYPE svg
PUBLIC "-//W3C//DTD SVG 1.1//EN"
       "http://www.w3.org/Graphics/SVG/1.1/DTD/svg11.dtd">
<svg version="1.1" xmlns="http://www.w3.org/2000/svg" xmlns:xlink="http://www.w3.org/1999/xlink" width="44.3848" height="37.5146">
 <g>
  <rect height="37.5146" opacity="0" width="44.3848" x="0" y="0"/>
  <path d="M10.7293 32.1533L1.17188 32.1533C0.527344 32.1533 0 31.6113 0 30.9668C0 30.3223 0.527344 29.7949 1.17188 29.7949L11.4586 29.7949C11.0989 30.6094 10.8523 31.405 10.7293 32.1533ZM19.5727 32.1533L12.9679 32.1533C13.0938 31.4318 13.3751 30.6301 13.8049 29.7949L20.7898 29.7949C20.4336 30.6748 20.0271 31.4704 19.5727 32.1533ZM44.0186 30.9668C44.0186 31.6113 43.4766 32.1533 42.832 32.1533L22.1328 32.1533C22.5268 31.4345 22.8741 30.6433 23.176 29.7949L42.832 29.7949C43.4766 29.7949 44.0186 30.3223 44.0186 30.9668ZM2.09473 20.1123L3.93311 21.9399L5.77148 20.1123C6.15234 19.7314 6.72363 19.7168 7.10449 20.1123C7.5 20.4932 7.5 21.0645 7.10449 21.4453L5.27273 23.2717L7.10449 25.0928C7.5 25.4736 7.5 26.0596 7.10449 26.4404C6.72363 26.8213 6.15234 26.8213 5.77148 26.4404L3.93311 24.6074L2.09473 26.4404C1.71387 26.8066 1.14258 26.8213 0.761719 26.4404C0.366211 26.0596 0.366211 25.4883 0.761719 25.0928L2.59348 23.2717L0.761719 21.4453C0.366211 21.0791 0.366211 20.4932 0.761719 20.1123C1.14258 19.7168 1.71387 19.7168 2.09473 20.1123Z" fill="#000000"/>
  <path d="M14.6777 37.5146C20.7422 37.5146 24.7119 29.8682 24.7119 20.1562C24.7119 11.9092 20.9766 5.25879 15.1172 5.25879C11.3525 5.25879 8.4375 8.4668 8.4375 12.5537C8.4375 18.6035 13.418 23.5254 18.6035 25.9717C18.8086 26.0596 18.9844 26.1035 19.1602 26.1035C19.7461 26.1035 20.1855 25.6348 20.1855 25.1221C20.1855 24.7705 19.9951 24.4189 19.5703 24.2139C16.2158 22.5879 10.6787 18.457 10.6787 12.5537C10.6787 9.69727 12.6123 7.48535 15.1172 7.48535C19.6143 7.48535 22.4854 13.2129 22.4854 20.1562C22.4854 28.4473 19.248 35.2881 14.9414 35.2881C13.5352 35.2881 12.876 34.3652 12.876 33.0469C12.876 28.96 19.0723 20.9912 27.583 20.9912C28.0957 20.9912 28.3887 21.2109 28.3887 21.5918C28.3887 22.8662 27.7002 23.8623 27.7002 25.1367C27.7002 26.25 28.5059 26.9238 29.5898 26.9238C32.5635 26.9238 36.1377 21.8408 37.3389 21.8408C38.4229 21.8408 37.0752 26.4111 40.752 26.4111C41.3672 26.4111 42.1436 26.25 42.7441 25.8545C43.0957 25.6201 43.3447 25.2686 43.3447 24.8145C43.3447 24.2578 42.9785 23.8037 42.4072 23.8037C41.8945 23.8037 41.4697 24.2285 40.9717 24.2285C39.3896 24.2285 40.8984 19.3652 37.9834 19.3652C35.4199 19.3652 31.4502 24.3164 30.4248 24.3164C30.3076 24.3164 30.2051 24.2432 30.2051 24.0674C30.2051 23.54 30.8496 22.3389 30.8496 21.167C30.8496 19.7021 29.6338 18.7646 27.7441 18.7646C17.959 18.7646 10.5908 27.9492 10.5908 33.4717C10.5908 35.8301 11.9238 37.5146 14.6777 37.5146Z" fill="#000000"/>
 </g>
</svg>
