<?xml version="1.0" encoding="UTF-8"?>
<!--Generator: Apple Native CoreSVG 232.5-->
<!DOCTYPE svg
PUBLIC "-//W3C//DTD SVG 1.1//EN"
       "http://www.w3.org/Graphics/SVG/1.1/DTD/svg11.dtd">
<svg version="1.1" xmlns="http://www.w3.org/2000/svg" xmlns:xlink="http://www.w3.org/1999/xlink" width="30.5127" height="29.458">
 <g>
  <rect height="29.458" opacity="0" width="30.5127" x="0" y="0"/>
  <path d="M3.2959 28.7109L16.6992 28.7109C18.8525 28.7109 19.9951 27.5391 19.9951 25.2246L19.9951 15.1318C19.9951 12.832 18.8525 11.6602 16.6992 11.6602L3.2959 11.6602C1.14258 11.6602 0 12.832 0 15.1318L0 25.2246C0 27.5391 1.14258 28.7109 3.2959 28.7109ZM15.2783 12.8027L17.5928 12.8027L17.5928 7.86621C17.5928 4.16016 19.9658 2.21191 22.7051 2.21191C25.4443 2.21191 27.8174 4.16016 27.8174 7.86621L27.8174 11.1182C27.8174 11.9824 28.3301 12.4219 28.9893 12.4219C29.6191 12.4219 30.1465 12.0264 30.1465 11.1182L30.1465 8.17383C30.1465 2.66602 26.5283 0 22.7051 0C18.8672 0 15.2783 2.66602 15.2783 8.17383Z" fill="#000000"/>
 </g>
</svg>
