<?xml version="1.0" encoding="UTF-8"?>
<!--Generator: Apple Native CoreSVG 232.5-->
<!DOCTYPE svg
PUBLIC "-//W3C//DTD SVG 1.1//EN"
       "http://www.w3.org/Graphics/SVG/1.1/DTD/svg11.dtd">
<svg version="1.1" xmlns="http://www.w3.org/2000/svg" xmlns:xlink="http://www.w3.org/1999/xlink" width="33.5889" height="30.542">
 <g>
  <rect height="30.542" opacity="0" width="33.5889" x="0" y="0"/>
  <path d="M5.80078 30.542C7.55859 30.542 11.9385 28.623 14.4287 26.8359C14.6777 26.6602 14.8828 26.5869 15.0879 26.5869C15.2783 26.6016 15.4688 26.6162 15.6592 26.6162C26.2207 26.6162 33.2227 20.6104 33.2227 13.3154C33.2227 5.94727 25.8398 0 16.6113 0C7.38281 0 0 5.94727 0 13.3154C0 18.0029 2.88574 22.1191 7.58789 24.6387C7.80762 24.7559 7.88086 24.9756 7.76367 25.1953C6.94336 26.543 5.47852 28.1543 4.92188 28.8867C4.35059 29.6191 4.67285 30.542 5.80078 30.542Z" fill="#ab2b00"/>
 </g>
</svg>
