<?xml version="1.0" encoding="UTF-8"?>
<!--Generator: Apple Native CoreSVG 232.5-->
<!DOCTYPE svg
PUBLIC "-//W3C//DTD SVG 1.1//EN"
       "http://www.w3.org/Graphics/SVG/1.1/DTD/svg11.dtd">
<svg version="1.1" xmlns="http://www.w3.org/2000/svg" xmlns:xlink="http://www.w3.org/1999/xlink" width="33.5889" height="30.542">
 <g>
  <rect height="30.542" opacity="0" width="33.5889" x="0" y="0"/>
  <path d="M33.2227 13.3154C33.2227 20.6104 26.2207 26.6162 15.6592 26.6162C15.4688 26.6162 15.2783 26.6016 15.0879 26.5869C14.8828 26.5869 14.6777 26.6602 14.4287 26.8359C11.9385 28.623 7.55859 30.542 5.80078 30.542C4.67285 30.542 4.35059 29.6191 4.92188 28.8867C5.47852 28.1543 6.94336 26.543 7.76367 25.1953C7.88086 24.9756 7.80762 24.7559 7.58789 24.6387C2.88574 22.1191 0 18.0029 0 13.3154C0 5.94727 7.38281 0 16.6113 0C25.8398 0 33.2227 5.94727 33.2227 13.3154ZM21.4746 13.4473C21.4746 14.6631 22.4561 15.6445 23.6719 15.6445C24.8584 15.6445 25.8691 14.6631 25.8691 13.4473C25.8691 12.2314 24.8584 11.25 23.6719 11.25C22.4561 11.25 21.4746 12.2314 21.4746 13.4473ZM14.4141 13.4473C14.4141 14.6631 15.3955 15.6445 16.6113 15.6445C17.8271 15.6445 18.8086 14.6631 18.8086 13.4473C18.8086 12.2314 17.8271 11.25 16.6113 11.25C15.3955 11.25 14.4141 12.2314 14.4141 13.4473ZM7.36816 13.4473C7.36816 14.6631 8.36426 15.6445 9.56543 15.6445C10.7666 15.6445 11.748 14.6631 11.748 13.4473C11.748 12.2314 10.752 11.25 9.56543 11.25C8.36426 11.25 7.36816 12.2314 7.36816 13.4473Z" fill="#98989d"/>
 </g>
</svg>
