<?xml version="1.0" encoding="UTF-8"?>
<!--Generator: Apple Native CoreSVG 232.5-->
<!DOCTYPE svg
PUBLIC "-//W3C//DTD SVG 1.1//EN"
       "http://www.w3.org/Graphics/SVG/1.1/DTD/svg11.dtd">
<svg version="1.1" xmlns="http://www.w3.org/2000/svg" xmlns:xlink="http://www.w3.org/1999/xlink" width="30.249" height="29.8975">
 <g>
  <rect height="29.8975" opacity="0" width="30.249" x="0" y="0"/>
  <path d="M14.9414 29.8828C23.1152 29.8828 29.8828 23.1006 29.8828 14.9414C29.8828 6.76758 23.1006 0 14.9268 0C6.76758 0 0 6.76758 0 14.9414C0 23.1006 6.78223 29.8828 14.9414 29.8828Z" fill="#000000"/>
  <path d="M14.9268 27.6562C11.5723 27.6562 8.17383 26.2793 5.93262 23.8916C7.51465 21.4014 10.957 19.9365 14.9268 19.9365C18.8672 19.9365 22.3389 21.3721 23.9355 23.8916C21.6797 26.2793 18.2959 27.6562 14.9268 27.6562ZM14.9268 17.4463C12.1143 17.417 9.90234 15.0732 9.90234 11.9238C9.8877 8.96484 12.1289 6.50391 14.9268 6.50391C17.7393 6.50391 19.9512 8.96484 19.9512 11.9238C19.9512 15.0732 17.7539 17.4756 14.9268 17.4463Z" fill="#ffffff"/>
 </g>
</svg>
