<?xml version="1.0" encoding="UTF-8"?>
<!--Generator: Apple Native CoreSVG 232.5-->
<!DOCTYPE svg
PUBLIC "-//W3C//DTD SVG 1.1//EN"
       "http://www.w3.org/Graphics/SVG/1.1/DTD/svg11.dtd">
<svg version="1.1" xmlns="http://www.w3.org/2000/svg" xmlns:xlink="http://www.w3.org/1999/xlink" width="35.7715" height="37.1045">
 <g>
  <rect height="37.1045" opacity="0" width="35.7715" x="0" y="0"/>
  <path d="M26.947 4.18945L8.45822 4.18945C8.51835 2.99894 9.26967 2.31445 10.5176 2.31445L24.8877 2.31445C26.1356 2.31445 26.8869 2.99894 26.947 4.18945Z" fill="#000000"/>
  <path d="M29.9435 8.37374C29.4724 8.29885 28.9727 8.26172 28.4473 8.26172L6.95801 8.26172C6.43276 8.26172 5.93317 8.29883 5.46218 8.3737C5.62167 6.9664 6.57395 6.18164 8.12988 6.18164L27.29 6.18164C28.846 6.18164 29.7862 6.96641 29.9435 8.37374Z" fill="#000000"/>
  <path d="M8.55469 33.5596L26.8506 33.5596C26.0742 29.8242 22.3242 27.1143 17.71 27.1143C13.0811 27.1143 9.33105 29.8242 8.55469 33.5596ZM17.71 24.8877C20.2441 24.8877 22.251 22.7637 22.251 19.9219C22.251 17.2412 20.2441 15.0439 17.71 15.0439C15.1611 15.0439 13.1689 17.2412 13.1689 19.9219C13.1689 22.7637 15.1611 24.8877 17.71 24.8877ZM6.95801 34.7461L28.4473 34.7461C31.5088 34.7461 33.0469 33.2227 33.0469 30.2051L33.0469 15.1611C33.0469 12.1436 31.5088 10.6201 28.4473 10.6201L6.95801 10.6201C3.89648 10.6201 2.3584 12.1436 2.3584 15.1611L2.3584 30.2051C2.3584 33.2227 3.89648 34.7461 6.95801 34.7461ZM7.00195 32.3877C5.53711 32.3877 4.7168 31.5967 4.7168 30.0732L4.7168 15.293C4.7168 13.7695 5.53711 12.9785 7.00195 12.9785L28.418 12.9785C29.8535 12.9785 30.6885 13.7695 30.6885 15.293L30.6885 30.0732C30.6885 31.5967 29.8535 32.3877 28.418 32.3877Z" fill="#000000"/>
 </g>
</svg>
