<?xml version="1.0" encoding="UTF-8"?>
<!--Generator: Apple Native CoreSVG 232.5-->
<!DOCTYPE svg
PUBLIC "-//W3C//DTD SVG 1.1//EN"
       "http://www.w3.org/Graphics/SVG/1.1/DTD/svg11.dtd">
<svg version="1.1" xmlns="http://www.w3.org/2000/svg" xmlns:xlink="http://www.w3.org/1999/xlink" width="30.249" height="29.8975">
 <g>
  <rect height="29.8975" opacity="0" width="30.249" x="0" y="0"/>
  <path d="M29.8828 14.9561C29.8828 23.1299 23.1152 29.8975 14.9414 29.8975C6.78223 29.8975 0 23.1299 0 14.9561C0 6.79688 6.76758 0.0146484 14.9268 0.0146484C23.1006 0.0146484 29.8828 6.79688 29.8828 14.9561ZM9.41895 7.48535C7.71973 7.48535 6.87012 8.33496 6.87012 10.0049L6.87012 19.9072C6.87012 21.5918 7.71973 22.4268 9.41895 22.4268L20.4639 22.4268C22.1631 22.4268 23.0127 21.5918 23.0127 19.9072L23.0127 10.0049C23.0127 8.33496 22.1631 7.48535 20.4639 7.48535ZM21.6211 12.334L21.6211 19.9805C21.6211 20.6982 21.2695 21.0352 20.5664 21.0352L9.30176 21.0352C8.62793 21.0352 8.26172 20.6982 8.26172 19.9805L8.26172 12.334C8.26172 11.5869 8.65723 11.2061 9.375 11.2061L20.5078 11.2061C21.2109 11.2061 21.6211 11.5869 21.6211 12.334ZM10.6348 18.0762C10.2832 18.0762 10.166 18.1641 10.166 18.501L10.166 19.0723C10.166 19.4238 10.2832 19.5264 10.6348 19.5264L11.1914 19.5264C11.543 19.5264 11.6455 19.4238 11.6455 19.0723L11.6455 18.501C11.6455 18.1641 11.543 18.0762 11.1914 18.0762ZM13.3154 18.0762C12.9639 18.0762 12.8613 18.1641 12.8613 18.501L12.8613 19.0723C12.8613 19.4238 12.9639 19.5264 13.3154 19.5264L13.8721 19.5264C14.2236 19.5264 14.3408 19.4238 14.3408 19.0723L14.3408 18.501C14.3408 18.1641 14.2236 18.0762 13.8721 18.0762ZM16.0107 18.0762C15.6592 18.0762 15.5566 18.1641 15.5566 18.501L15.5566 19.0723C15.5566 19.4238 15.6592 19.5264 16.0107 19.5264L16.5674 19.5264C16.9189 19.5264 17.0215 19.4238 17.0215 19.0723L17.0215 18.501C17.0215 18.1641 16.9189 18.0762 16.5674 18.0762ZM10.6348 15.4248C10.2832 15.4248 10.166 15.5273 10.166 15.8789L10.166 16.4502C10.166 16.7871 10.2832 16.875 10.6348 16.875L11.1914 16.875C11.543 16.875 11.6455 16.7871 11.6455 16.4502L11.6455 15.8789C11.6455 15.5273 11.543 15.4248 11.1914 15.4248ZM13.3154 15.4248C12.9639 15.4248 12.8613 15.5273 12.8613 15.8789L12.8613 16.4502C12.8613 16.7871 12.9639 16.875 13.3154 16.875L13.8721 16.875C14.2236 16.875 14.3408 16.7871 14.3408 16.4502L14.3408 15.8789C14.3408 15.5273 14.2236 15.4248 13.8721 15.4248ZM16.0107 15.4248C15.6592 15.4248 15.5566 15.5273 15.5566 15.8789L15.5566 16.4502C15.5566 16.7871 15.6592 16.875 16.0107 16.875L16.5674 16.875C16.9189 16.875 17.0215 16.7871 17.0215 16.4502L17.0215 15.8789C17.0215 15.5273 16.9189 15.4248 16.5674 15.4248ZM18.7061 15.4248C18.3398 15.4248 18.2373 15.5273 18.2373 15.8789L18.2373 16.4502C18.2373 16.7871 18.3398 16.875 18.7061 16.875L19.248 16.875C19.5996 16.875 19.7168 16.7871 19.7168 16.4502L19.7168 15.8789C19.7168 15.5273 19.5996 15.4248 19.248 15.4248ZM13.3154 12.7734C12.9639 12.7734 12.8613 12.8906 12.8613 13.2275L12.8613 13.8135C12.8613 14.1357 12.9639 14.2383 13.3154 14.2383L13.8721 14.2383C14.2236 14.2383 14.3408 14.1357 14.3408 13.8135L14.3408 13.2275C14.3408 12.8906 14.2236 12.7734 13.8721 12.7734ZM16.0107 12.7734C15.6592 12.7734 15.5566 12.8906 15.5566 13.2275L15.5566 13.8135C15.5566 14.1357 15.6592 14.2383 16.0107 14.2383L16.5674 14.2383C16.9189 14.2383 17.0215 14.1357 17.0215 13.8135L17.0215 13.2275C17.0215 12.8906 16.9189 12.7734 16.5674 12.7734ZM18.7061 12.7734C18.3398 12.7734 18.2373 12.8906 18.2373 13.2275L18.2373 13.8135C18.2373 14.1357 18.3398 14.2383 18.7061 14.2383L19.248 14.2383C19.5996 14.2383 19.7168 14.1357 19.7168 13.8135L19.7168 13.2275C19.7168 12.8906 19.5996 12.7734 19.248 12.7734Z" fill="#044064"/>
 </g>
</svg>
