<?xml version="1.0" encoding="UTF-8"?>
<!--Generator: Apple Native CoreSVG 232.5-->
<!DOCTYPE svg
PUBLIC "-//W3C//DTD SVG 1.1//EN"
       "http://www.w3.org/Graphics/SVG/1.1/DTD/svg11.dtd">
<svg version="1.1" xmlns="http://www.w3.org/2000/svg" xmlns:xlink="http://www.w3.org/1999/xlink" width="35.0391" height="39.3164">
 <g>
  <rect height="39.3164" opacity="0" width="35.0391" x="0" y="0"/>
  <path d="M6.13281 39.2969L29.1211 39.2969C32.6172 39.2969 34.668 37.2656 34.668 33.2422L34.668 13.0273C34.668 9.00391 32.5977 6.97266 28.5352 6.97266L6.13281 6.97266C2.05078 6.97266 0 8.98438 0 13.0273L0 33.2422C0 37.2852 2.05078 39.2969 6.13281 39.2969ZM9.62891 7.73438L12.7734 7.75391C12.7734 4.96094 14.6094 2.96875 17.3242 2.96875C20.0391 2.96875 21.8945 4.96094 21.8945 7.75391L25.0391 7.73438C25.0391 3.41797 21.6992 0 17.3242 0C12.9492 0 9.62891 3.41797 9.62891 7.73438Z" fill="#daa100"/>
 </g>
</svg>
