<?xml version="1.0" encoding="UTF-8"?>
<!--Generator: Apple Native CoreSVG 232.5-->
<!DOCTYPE svg
PUBLIC "-//W3C//DTD SVG 1.1//EN"
       "http://www.w3.org/Graphics/SVG/1.1/DTD/svg11.dtd">
<svg version="1.1" xmlns="http://www.w3.org/2000/svg" xmlns:xlink="http://www.w3.org/1999/xlink" width="51.9336" height="32.2852">
 <g>
  <rect height="32.2852" opacity="0" width="51.9336" x="0" y="0"/>
  <path d="M5.60547 26.2109C5.60547 26.5234 5.78125 26.6797 6.07422 26.6797L21.3477 26.6797C19.2773 24.5703 18.0664 20.8398 18.0664 16.1133C18.0664 11.4062 19.2773 7.69531 21.3086 5.60547L6.07422 5.60547C5.78125 5.60547 5.60547 5.76172 5.60547 6.07422ZM20.4102 16.1133C20.4102 22.207 22.5195 26.2891 25.7031 26.2891C28.9844 26.2891 31.1914 22.207 31.1914 16.1133C31.1914 10.0195 28.9844 5.95703 25.7031 5.95703C22.5195 5.95703 20.4102 10.0195 20.4102 16.1133ZM30.1758 26.6797L45.4883 26.6797C45.7812 26.6797 45.957 26.5234 45.957 26.2109L45.957 6.07422C45.957 5.76172 45.7812 5.60547 45.4883 5.60547L30.1953 5.60547C32.2852 7.69531 33.5156 11.4062 33.5156 16.1133C33.5156 20.8398 32.2656 24.5703 30.1758 26.6797Z" fill="#daa100"/>
  <path d="M0 30.7227C0 31.6602 0.625 32.2852 1.5625 32.2852L50.0195 32.2852C50.957 32.2852 51.5625 31.6602 51.5625 30.7227L51.5625 1.54297C51.5625 0.605469 50.957 0 50.0195 0L1.5625 0C0.625 0 0 0.605469 0 1.54297ZM3.57422 27.5195L3.57422 4.76562C3.57422 3.98438 4.02344 3.57422 4.74609 3.57422L46.8164 3.57422C47.5586 3.57422 47.9883 3.98438 47.9883 4.76562L47.9883 27.5195C47.9883 28.2812 47.5586 28.7109 46.8164 28.7109L4.74609 28.7109C4.02344 28.7109 3.57422 28.2812 3.57422 27.5195Z" fill="#daa100"/>
 </g>
</svg>
