<?xml version="1.0" encoding="UTF-8"?>
<!--Generator: Apple Native CoreSVG 232.5-->
<!DOCTYPE svg
PUBLIC "-//W3C//DTD SVG 1.1//EN"
       "http://www.w3.org/Graphics/SVG/1.1/DTD/svg11.dtd">
<svg version="1.1" xmlns="http://www.w3.org/2000/svg" xmlns:xlink="http://www.w3.org/1999/xlink" width="42.3828" height="40.7227">
 <g>
  <rect height="40.7227" opacity="0" width="42.3828" x="0" y="0"/>
  <path d="M0 39.1406C0 40 0.703125 40.7227 1.5625 40.7227L40.4297 40.7227C41.2891 40.7227 42.0117 40 42.0117 39.1406C42.0117 38.2812 41.2891 37.5781 40.4297 37.5781L1.5625 37.5781C0.703125 37.5781 0 38.2812 0 39.1406ZM3.41797 16.7773C3.41797 17.5781 3.86719 18.0273 4.66797 18.0273L9.66797 18.0273C10.4688 18.0273 10.9375 17.5781 10.9375 16.7773L10.9375 16.3086C10.9375 15.5469 10.4688 15.0781 9.66797 15.0781L4.66797 15.0781C3.86719 15.0781 3.41797 15.5469 3.41797 16.3086ZM5.70312 33.4766L8.65234 33.4766L8.65234 16.9727L5.70312 16.9727ZM3.41797 34.6094C3.41797 35.4102 3.86719 35.8594 4.66797 35.8594L9.66797 35.8594C10.4688 35.8594 10.9375 35.4102 10.9375 34.6094L10.9375 34.1406C10.9375 33.3789 10.4688 32.9102 9.66797 32.9102L4.66797 32.9102C3.86719 32.9102 3.41797 33.3789 3.41797 34.1406ZM12.6953 16.7773C12.6953 17.5781 13.1641 18.0273 13.9453 18.0273L18.9648 18.0273C19.7461 18.0273 20.2148 17.5781 20.2148 16.7773L20.2148 16.3086C20.2148 15.5469 19.7461 15.0781 18.9648 15.0781L13.9453 15.0781C13.1641 15.0781 12.6953 15.5469 12.6953 16.3086ZM15 33.4766L17.9492 33.4766L17.9492 16.9727L15 16.9727ZM12.6953 34.6094C12.6953 35.4102 13.1641 35.8594 13.9453 35.8594L18.9648 35.8594C19.7461 35.8594 20.2148 35.4102 20.2148 34.6094L20.2148 34.1406C20.2148 33.3789 19.7461 32.9102 18.9648 32.9102L13.9453 32.9102C13.1641 32.9102 12.6953 33.3789 12.6953 34.1406ZM21.9922 16.7773C21.9922 17.5781 22.4609 18.0273 23.2422 18.0273L28.2617 18.0273C29.043 18.0273 29.5117 17.5781 29.5117 16.7773L29.5117 16.3086C29.5117 15.5469 29.043 15.0781 28.2617 15.0781L23.2422 15.0781C22.4609 15.0781 21.9922 15.5469 21.9922 16.3086ZM24.2969 33.4766L27.2461 33.4766L27.2461 16.9727L24.2969 16.9727ZM21.9922 34.6094C21.9922 35.4102 22.4609 35.8594 23.2422 35.8594L28.2617 35.8594C29.043 35.8594 29.5117 35.4102 29.5117 34.6094L29.5117 34.1406C29.5117 33.3789 29.043 32.9102 28.2617 32.9102L23.2422 32.9102C22.4609 32.9102 21.9922 33.3789 21.9922 34.1406ZM31.2891 16.7773C31.2891 17.5781 31.7383 18.0273 32.5391 18.0273L37.5391 18.0273C38.3398 18.0273 38.7891 17.5781 38.7891 16.7773L38.7891 16.3086C38.7891 15.5469 38.3398 15.0781 37.5391 15.0781L32.5391 15.0781C31.7383 15.0781 31.2891 15.5469 31.2891 16.3086ZM33.5742 33.4766L36.5234 33.4766L36.5234 16.9727L33.5742 16.9727ZM31.2891 34.6094C31.2891 35.4102 31.7383 35.8594 32.5391 35.8594L37.5391 35.8594C38.3398 35.8594 38.7891 35.4102 38.7891 34.6094L38.7891 34.1406C38.7891 33.3789 38.3398 32.9102 37.5391 32.9102L32.5391 32.9102C31.7383 32.9102 31.2891 33.3789 31.2891 34.1406ZM2.57812 13.3789L39.4141 13.3789C40.4883 13.3789 41.1133 12.5977 41.1133 11.7969C41.1133 11.2109 40.8008 10.7031 40.0781 10.293L23.3984 0.683594C22.6172 0.234375 21.7969 0 20.9961 0C20.1953 0 19.375 0.234375 18.5938 0.683594L1.91406 10.293C1.19141 10.7031 0.878906 11.2109 0.878906 11.7969C0.878906 12.5977 1.48438 13.3789 2.57812 13.3789Z" fill="#000000"/>
 </g>
</svg>
