<?xml version="1.0" encoding="UTF-8"?>
<!--Generator: Apple Native CoreSVG 232.5-->
<!DOCTYPE svg
PUBLIC "-//W3C//DTD SVG 1.1//EN"
       "http://www.w3.org/Graphics/SVG/1.1/DTD/svg11.dtd">
<svg version="1.1" xmlns="http://www.w3.org/2000/svg" xmlns:xlink="http://www.w3.org/1999/xlink" width="46.4453" height="41.1523">
 <g>
  <rect height="41.1523" opacity="0" width="46.4453" x="0" y="0"/>
  <path d="M0 4.21875C0 5.01953 0.664062 5.70312 1.44531 5.70312L8.04688 5.70312L11.1719 27.1484C11.582 29.9219 13.0469 31.6602 15.8789 31.6602L38.6719 31.6602C39.4336 31.6602 40.0977 31.0352 40.0977 30.1953C40.0977 29.3555 39.4336 28.7305 38.6719 28.7305L16.2109 28.7305C15.0977 28.7305 14.4141 27.9492 14.2383 26.7578L13.9258 24.707L38.7109 24.707C41.5625 24.707 43.0273 22.9492 43.4375 20.1562L45 9.82422C45.0391 9.57031 45.0781 9.25781 45.0781 9.08203C45.0781 8.14453 44.375 7.5 43.3008 7.5L11.4258 7.5L11.0352 5.01953C10.8398 3.51562 10.293 2.75391 8.30078 2.75391L1.44531 2.75391C0.664062 2.75391 0 3.4375 0 4.21875ZM14.2383 37.9883C14.2383 39.7656 15.6445 41.1523 17.4219 41.1523C19.1797 41.1523 20.5859 39.7656 20.5859 37.9883C20.5859 36.2305 19.1797 34.8242 17.4219 34.8242C15.6445 34.8242 14.2383 36.2305 14.2383 37.9883ZM32.5 37.9883C32.5 39.7656 33.9258 41.1523 35.6836 41.1523C37.4609 41.1523 38.8672 39.7656 38.8672 37.9883C38.8672 36.2305 37.4609 34.8242 35.6836 34.8242C33.9258 34.8242 32.5 36.2305 32.5 37.9883Z" fill="#000000"/>
 </g>
</svg>
