<?xml version="1.0" encoding="UTF-8"?>
<!--Generator: Apple Native CoreSVG 232.5-->
<!DOCTYPE svg
PUBLIC "-//W3C//DTD SVG 1.1//EN"
       "http://www.w3.org/Graphics/SVG/1.1/DTD/svg11.dtd">
<svg version="1.1" xmlns="http://www.w3.org/2000/svg" xmlns:xlink="http://www.w3.org/1999/xlink" width="33.2227" height="54.1211">
 <g>
  <rect height="54.1211" opacity="0" width="33.2227" x="0" y="0"/>
  <path d="M6.28906 8.20312L6.28906 10.2539C6.28906 12.7148 8.00781 14.4531 10.3906 14.4531L22.4609 14.4531C24.8438 14.4531 26.5625 12.7148 26.5625 10.2539L26.5625 8.20312C26.5625 8.02978 26.5541 7.86006 26.5357 7.69531L26.7969 7.69531C30.8398 7.69531 32.8516 9.72656 32.8516 13.8281L32.8516 43.457C32.8516 47.5586 30.8398 49.5898 26.7969 49.5898L6.05469 49.5898C2.01172 49.5898 0 47.5586 0 43.457L0 13.8281C0 9.72656 2.01172 7.69531 6.05469 7.69531L6.31587 7.69531C6.29746 7.86006 6.28906 8.02978 6.28906 8.20312ZM7.53906 36.6406C6.83594 36.6406 6.26953 37.207 6.26953 37.8906C6.26953 38.5742 6.85547 39.1602 7.53906 39.1602L16.4844 39.1602C17.168 39.1602 17.7344 38.5742 17.7344 37.8906C17.7344 37.207 17.1875 36.6406 16.4844 36.6406ZM7.53906 29.1016C6.83594 29.1016 6.26953 29.6484 6.26953 30.3516C6.26953 31.0547 6.83594 31.6211 7.53906 31.6211L25.3125 31.6211C26.0156 31.6211 26.582 31.0547 26.582 30.3516C26.582 29.6484 26.0156 29.1016 25.3125 29.1016ZM7.53906 21.9336C6.85547 21.9336 6.26953 22.5195 6.26953 23.2227C6.26953 23.9062 6.85547 24.4727 7.53906 24.4727L25.3125 24.4727C25.9961 24.4727 26.582 23.9062 26.582 23.2227C26.582 22.5195 25.9961 21.9336 25.3125 21.9336Z" fill="#000000"/>
  <path d="M20.6641 6.26953L22.4609 6.26953C23.5938 6.26953 24.2773 6.99219 24.2773 8.20312L24.2773 10.2539C24.2773 11.4648 23.5938 12.1875 22.4609 12.1875L10.3906 12.1875C9.25781 12.1875 8.57422 11.4648 8.57422 10.2539L8.57422 8.20312C8.57422 6.99219 9.25781 6.26953 10.3906 6.26953L12.1875 6.26953C12.3242 4.0625 14.1602 2.26562 16.4258 2.26562C18.6914 2.26562 20.5273 4.0625 20.6641 6.26953ZM14.7266 6.42578C14.7266 7.34375 15.4883 8.125 16.4258 8.125C17.3633 8.125 18.125 7.34375 18.125 6.42578C18.125 5.46875 17.3633 4.70703 16.4258 4.70703C15.4883 4.70703 14.7266 5.46875 14.7266 6.42578Z" fill="#000000"/>
 </g>
</svg>
