<?xml version="1.0" encoding="UTF-8"?>
<!--Generator: Apple Native CoreSVG 232.5-->
<!DOCTYPE svg
PUBLIC "-//W3C//DTD SVG 1.1//EN"
       "http://www.w3.org/Graphics/SVG/1.1/DTD/svg11.dtd">
<svg version="1.1" xmlns="http://www.w3.org/2000/svg" xmlns:xlink="http://www.w3.org/1999/xlink" width="25.4883" height="41.3867">
 <g>
  <rect height="41.3867" opacity="0" width="25.4883" x="0" y="0"/>
  <path d="M5.3125 41.3477L19.8047 41.3477C22.9883 41.3477 25.1172 39.3164 25.1172 36.2695L25.1172 5.07812C25.1172 2.03125 22.9883 0 19.8047 0L5.3125 0C2.12891 0 0 2.03125 0 5.07812L0 36.2695C0 39.3164 2.12891 41.3477 5.3125 41.3477ZM5.72266 38.2031C4.0625 38.2031 3.14453 37.3242 3.14453 35.7617L3.14453 5.58594C3.14453 4.02344 4.0625 3.14453 5.72266 3.14453L19.4141 3.14453C21.0547 3.14453 21.9727 4.02344 21.9727 5.58594L21.9727 35.7617C21.9727 37.3242 21.0547 38.2031 19.4141 38.2031Z" fill="#daa100"/>
  <path d="M6.66016 35.5469L8.49609 35.5469C8.92578 35.5469 9.25781 35.2539 9.25781 34.8438L9.25781 32.9492C9.25781 32.5391 8.92578 32.2461 8.49609 32.2461L6.66016 32.2461C6.23047 32.2461 5.9375 32.5391 5.9375 32.9492L5.9375 34.8438C5.9375 35.2539 6.23047 35.5469 6.66016 35.5469ZM11.6016 35.5469L13.457 35.5469C13.8867 35.5469 14.2188 35.2539 14.2188 34.8438L14.2188 32.9492C14.2188 32.5391 13.8867 32.2461 13.457 32.2461L11.6016 32.2461C11.1914 32.2461 10.8984 32.5391 10.8984 32.9492L10.8984 34.8438C10.8984 35.2539 11.1914 35.5469 11.6016 35.5469ZM16.5625 35.5469L18.3984 35.5469C18.8477 35.5469 19.1602 35.2539 19.1602 34.8438L19.1602 32.9492C19.1602 32.5391 18.8477 32.2461 18.3984 32.2461L16.5625 32.2461C16.1523 32.2461 15.8594 32.5391 15.8594 32.9492L15.8594 34.8438C15.8594 35.2539 16.1523 35.5469 16.5625 35.5469ZM6.66016 19.8438L8.49609 19.8438C8.92578 19.8438 9.25781 19.5508 9.25781 19.1211L9.25781 17.2461C9.25781 16.8164 8.92578 16.5234 8.49609 16.5234L6.66016 16.5234C6.23047 16.5234 5.9375 16.8164 5.9375 17.2461L5.9375 19.1211C5.9375 19.5508 6.23047 19.8438 6.66016 19.8438ZM11.6016 19.8438L13.457 19.8438C13.8867 19.8438 14.2188 19.5508 14.2188 19.1211L14.2188 17.2461C14.2188 16.8164 13.8867 16.5234 13.457 16.5234L11.6016 16.5234C11.1914 16.5234 10.8984 16.8164 10.8984 17.2461L10.8984 19.1211C10.8984 19.5508 11.1914 19.8438 11.6016 19.8438ZM6.66016 14.5312L8.49609 14.5312C8.92578 14.5312 9.25781 14.2383 9.25781 13.8281L9.25781 11.9336C9.25781 11.5039 8.92578 11.2109 8.49609 11.2109L6.66016 11.2109C6.23047 11.2109 5.9375 11.5039 5.9375 11.9336L5.9375 13.8281C5.9375 14.2383 6.23047 14.5312 6.66016 14.5312ZM11.6016 14.5312L13.457 14.5312C13.8867 14.5312 14.2188 14.2383 14.2188 13.8281L14.2188 11.9336C14.2188 11.5039 13.8867 11.2109 13.457 11.2109L11.6016 11.2109C11.1914 11.2109 10.8984 11.5039 10.8984 11.9336L10.8984 13.8281C10.8984 14.2383 11.1914 14.5312 11.6016 14.5312ZM16.5625 14.5312L18.3984 14.5312C18.8477 14.5312 19.1602 14.2383 19.1602 13.8281L19.1602 11.9336C19.1602 11.5039 18.8477 11.2109 18.3984 11.2109L16.5625 11.2109C16.1523 11.2109 15.8594 11.5039 15.8594 11.9336L15.8594 13.8281C15.8594 14.2383 16.1523 14.5312 16.5625 14.5312ZM6.66016 9.23828L8.49609 9.23828C8.92578 9.23828 9.25781 8.94531 9.25781 8.51562L9.25781 6.64062C9.25781 6.21094 8.92578 5.91797 8.49609 5.91797L6.66016 5.91797C6.23047 5.91797 5.9375 6.21094 5.9375 6.64062L5.9375 8.51562C5.9375 8.94531 6.23047 9.23828 6.66016 9.23828ZM11.6016 9.23828L13.457 9.23828C13.8867 9.23828 14.2188 8.94531 14.2188 8.51562L14.2188 6.64062C14.2188 6.21094 13.8867 5.91797 13.457 5.91797L11.6016 5.91797C11.1914 5.91797 10.8984 6.21094 10.8984 6.64062L10.8984 8.51562C10.8984 8.94531 11.1914 9.23828 11.6016 9.23828ZM16.5625 9.23828L18.3984 9.23828C18.8477 9.23828 19.1602 8.94531 19.1602 8.51562L19.1602 6.64062C19.1602 6.21094 18.8477 5.91797 18.3984 5.91797L16.5625 5.91797C16.1523 5.91797 15.8594 6.21094 15.8594 6.64062L15.8594 8.51562C15.8594 8.94531 16.1523 9.23828 16.5625 9.23828Z" fill="#daa100"/>
 </g>
</svg>
