<?xml version="1.0" encoding="UTF-8"?>
<!--Generator: Apple Native CoreSVG 232.5-->
<!DOCTYPE svg
PUBLIC "-//W3C//DTD SVG 1.1//EN"
       "http://www.w3.org/Graphics/SVG/1.1/DTD/svg11.dtd">
<svg version="1.1" xmlns="http://www.w3.org/2000/svg" xmlns:xlink="http://www.w3.org/1999/xlink" width="44.0137" height="45.6006">
 <g>
  <rect height="45.6006" opacity="0" width="44.0137" x="0" y="0"/>
  <path d="M23.0323 43.4937L42.0752 24.4116C43.5401 22.9468 43.6377 22.1069 43.6377 20.0562L43.6377 12.6343C43.6377 10.564 43.1494 9.91944 41.6651 8.43506L37.1729 3.94288C35.708 2.47803 35.0635 1.97022 32.9932 1.97022L25.5518 1.97022C23.501 1.97022 22.6807 2.06788 21.2158 3.53272L2.11428 22.5952C-0.678686 25.3882-0.737279 28.2788 2.13381 31.1304L14.4971 43.4741C17.3682 46.3257 20.2393 46.2866 23.0323 43.4937ZM29.7119 17.5952C28.169 17.5952 27.0362 16.4038 27.0362 14.9194C27.0362 13.4155 28.169 12.2437 29.7119 12.2437C31.2354 12.2437 32.3877 13.4155 32.3877 14.9194C32.3877 16.4038 31.2354 17.5952 29.7119 17.5952Z" fill="#999999"/>
 </g>
</svg>
